<svg width="398.375000" height="398.372131" viewBox="0 0 398.375 398.372" fill="none" xmlns="http://www.w3.org/2000/svg" xmlns:xlink="http://www.w3.org/1999/xlink">
	<desc>
			Created with Pixso.
	</desc>
	<defs>
		<radialGradient gradientTransform="translate(199 199) rotate(90) scale(151.694 151.694)" cx="0.000000" cy="0.000000" r="1.000000" id="paint_radial_9_8983_0" gradientUnits="userSpaceOnUse">
			<stop stop-color="#252B40"/>
			<stop offset="1.000000" stop-color="#131622"/>
		</radialGradient>
	</defs>
	<circle id="Ellipse 192" cx="199.000000" cy="199.000000" r="132.000000" fill="url(#paint_radial_9_8983_0)" fill-opacity="1.000000"/>
	<path id="Ellipse 26" d="M199.08 360.66C286.62 360.66 357.73 289.54 357.73 202C357.73 114.46 286.62 43.35 199.08 43.35C111.53 43.35 40.42 114.46 40.42 202C40.42 289.54 111.53 360.66 199.08 360.66ZM300.75 116.69C320.14 139.77 331.83 169.54 331.83 202C331.82 232.15 321.64 262.46 300.75 287.32C281.39 310.42 254.1 327.1 222.12 332.71C192.44 337.96 160.82 333.2 132.71 316.94C106.6 301.88 85.43 277.91 74.36 247.39C64.03 219.07 63.23 187.1 74.36 156.61C84.65 128.27 104.59 103.27 132.72 87.06C158.82 71.97 190.16 65.63 222.13 71.3C251.82 76.51 279.9 91.8 300.75 116.69Z" fill="#22293F" fill-opacity="1.000000" fill-rule="evenodd"/>
	<path id="Ellipse 27" d="M199.18 58.34C211.79 58.34 224.01 60 235.64 63.13L232 76.74C221.03 73.8 210.03 72.4 199.18 72.42L199.18 58.34Z" fill="#0F121B" fill-opacity="1.000000" fill-rule="evenodd"/>
	<path id="Ellipse 166" d="M199.18 58.34C211.79 58.34 224.01 60 235.64 63.13L234.73 66.53C222.85 63.35 210.93 61.83 199.18 61.85L199.18 58.34Z" fill="#0F121B" fill-opacity="1.000000" fill-rule="evenodd"/>
	<path id="Ellipse 143" d="M162.73 63.13C174.9 59.87 187.14 58.31 199.18 58.34L199.18 72.42C187.84 72.42 176.84 73.91 166.37 76.74L162.73 63.13Z" fill="#FABC38" fill-opacity="1.000000" fill-rule="evenodd"/>
	<path id="Ellipse 169" d="M162.73 63.13C174.9 59.87 187.14 58.31 199.18 58.34L199.18 61.84C186.89 61.84 174.97 63.46 163.64 66.52L162.73 63.13Z" fill="#FABC38" fill-opacity="1.000000" fill-rule="evenodd"/>
	<path id="Ellipse 144" d="M128.76 77.21C139.67 70.9 151.09 66.23 162.73 63.13L166.37 76.74C155.42 79.68 145.17 83.97 135.8 89.4L128.76 77.21Z" fill="#0F121B" fill-opacity="1.000000" fill-rule="evenodd"/>
	<path id="Ellipse 167" d="M128.76 77.21C139.67 70.9 151.09 66.23 162.73 63.13L163.65 66.59C151.78 69.77 140.7 74.42 130.55 80.3L128.76 77.21Z" fill="#0F121B" fill-opacity="1.000000" fill-rule="evenodd"/>
	<path id="Ellipse 145" d="M99.59 99.59C108.5 90.68 118.32 83.21 128.76 77.21L135.8 89.4C125.98 95.07 117.2 101.87 109.55 109.55L99.59 99.59Z" fill="#18B146" fill-opacity="1.000000" fill-rule="evenodd"/>
	<path id="Ellipse 189" d="M99.59 99.59C108.5 90.68 118.32 83.21 128.76 77.21L130.55 80.3C119.91 86.44 110.4 93.8 102.12 102.12L99.59 99.59Z" fill="#18B146" fill-opacity="1.000000" fill-rule="evenodd"/>
	<path id="Ellipse 146" d="M77.21 128.76C83.51 117.84 91.06 108.09 99.59 99.59L109.55 109.55C101.53 117.57 94.81 126.4 89.41 135.8L77.21 128.76Z" fill="#0F121B" fill-opacity="1.000000" fill-rule="evenodd"/>
	<path id="Ellipse 188" d="M77.21 128.76C83.51 117.84 91.06 108.09 99.59 99.59L102.11 102.11C93.42 110.8 86.14 120.36 80.29 130.54L77.21 128.76Z" fill="#0F121B" fill-opacity="1.000000" fill-rule="evenodd"/>
	<path id="Ellipse 147" d="M63.14 162.73C66.4 150.55 71.17 139.18 77.21 128.76L89.4 135.8C83.73 145.63 79.53 155.9 76.75 166.37L63.14 162.73Z" fill="#4482E5" fill-opacity="1.000000" fill-rule="evenodd"/>
	<path id="Ellipse 187" d="M63.14 162.73C66.4 150.55 71.17 139.18 77.21 128.76L80.22 130.5C74.07 141.14 69.52 152.28 66.5 163.63L63.14 162.73Z" fill="#3D7CE0" fill-opacity="1.000000" fill-rule="evenodd"/>
	<path id="Ellipse 148" d="M58.33 199.18C58.33 186.58 60 174.36 63.14 162.73L76.74 166.37C73.8 177.33 72.4 188.34 72.42 199.18L58.33 199.18Z" fill="#0F121B" fill-opacity="1.000000" fill-rule="evenodd"/>
	<path id="Ellipse 186" d="M58.33 199.18C58.33 186.58 60 174.36 63.14 162.73L66.48 163.62C63.3 175.5 61.78 187.43 61.8 199.18L58.33 199.18Z" fill="#0F121B" fill-opacity="1.000000" fill-rule="evenodd"/>
	<path id="Ellipse 149" d="M63.14 235.64C59.87 223.46 58.32 211.23 58.34 199.18L72.42 199.18C72.42 210.53 73.92 221.52 76.74 231.99L63.14 235.64Z" fill="#FABC38" fill-opacity="1.000000" fill-rule="evenodd"/>
	<path id="Ellipse 185" d="M63.14 235.64C59.87 223.46 58.32 211.23 58.34 199.18L61.88 199.18C61.88 211.47 63.5 223.38 66.55 234.72L63.14 235.64Z" fill="#FABC38" fill-opacity="1.000000" fill-rule="evenodd"/>
	<path id="Ellipse 150" d="M77.21 269.6C70.9 258.69 66.23 247.27 63.14 235.63L76.74 231.99C79.67 242.95 83.96 253.18 89.4 262.56L77.21 269.6Z" fill="#0F121B" fill-opacity="1.000000" fill-rule="evenodd"/>
	<path id="Ellipse 184" d="M77.21 269.6C70.9 258.69 66.23 247.27 63.14 235.63L66.58 234.71C69.76 246.58 74.41 257.66 80.3 267.82L77.21 269.6Z" fill="#0F121B" fill-opacity="1.000000" fill-rule="evenodd"/>
	<path id="Ellipse 151" d="M99.59 298.77C90.67 289.86 83.21 280.05 77.21 269.6L89.41 262.56C95.08 272.39 101.87 281.16 109.55 288.82L99.59 298.77Z" fill="#18B146" fill-opacity="1.000000" fill-rule="evenodd"/>
	<path id="Ellipse 183" d="M99.59 298.77C90.67 289.86 83.21 280.05 77.21 269.6L80.22 267.86C86.37 278.51 93.73 288.02 102.05 296.31L99.59 298.77Z" fill="#18B146" fill-opacity="1.000000" fill-rule="evenodd"/>
	<path id="Ellipse 152" d="M128.76 321.16C117.85 314.85 108.09 307.31 99.59 298.77L109.55 288.82C117.57 296.84 126.4 303.56 135.8 308.96L128.76 321.16Z" fill="#0F121B" fill-opacity="1.000000" fill-rule="evenodd"/>
	<path id="Ellipse 182" d="M128.76 321.16C117.85 314.85 108.09 307.31 99.59 298.77L102.09 296.28C110.78 304.97 120.35 312.25 130.53 318.1L128.76 321.16Z" fill="#0F121B" fill-opacity="1.000000" fill-rule="evenodd"/>
	<path id="Ellipse 153" d="M162.73 335.23C150.56 331.97 139.18 327.2 128.76 321.16L135.8 308.96C145.63 314.63 155.9 318.84 166.38 321.62L162.73 335.23Z" fill="#FABC38" fill-opacity="1.000000" fill-rule="evenodd"/>
	<path id="Ellipse 180" d="M162.73 335.23C150.56 331.97 139.18 327.2 128.76 321.16L130.52 318.11C141.16 324.26 152.29 328.81 163.64 331.83L162.73 335.23Z" fill="#FABC38" fill-opacity="1.000000" fill-rule="evenodd"/>
	<path id="Ellipse 154" d="M199.18 340.03C186.57 340.03 174.35 338.37 162.73 335.23L166.37 321.62C177.33 324.56 188.34 325.96 199.18 325.94L199.18 340.03Z" fill="#0F121B" fill-opacity="1.000000" fill-rule="evenodd"/>
	<path id="Ellipse 181" d="M199.18 340.03C186.57 340.03 174.35 338.37 162.73 335.23L163.64 331.8C175.52 334.98 187.44 336.5 199.18 336.47L199.18 340.03Z" fill="#0F121B" fill-opacity="1.000000" fill-rule="evenodd"/>
	<path id="Ellipse 155" d="M235.64 335.23C223.46 338.49 211.23 340.05 199.18 340.03L199.18 325.94C210.53 325.94 221.53 324.45 232 321.62L235.64 335.23Z" fill="#18B146" fill-opacity="1.000000" fill-rule="evenodd"/>
	<path id="Ellipse 179" d="M235.64 335.23C223.46 338.49 211.23 340.05 199.18 340.03L199.18 336.52C211.47 336.52 223.39 334.9 234.73 331.84L235.64 335.23Z" fill="#18B146" fill-opacity="1.000000" fill-rule="evenodd"/>
	<path id="Ellipse 156" d="M269.6 321.16C258.69 327.46 247.28 332.13 235.64 335.23L232 321.62C242.95 318.69 253.19 314.4 262.57 308.96L269.6 321.16Z" fill="#0F121B" fill-opacity="1.000000" fill-rule="evenodd"/>
	<path id="Ellipse 178" d="M269.6 321.16C258.69 327.46 247.28 332.13 235.64 335.23L234.74 331.86C246.61 328.68 257.71 324.03 267.86 318.14L269.6 321.16Z" fill="#0F121B" fill-opacity="1.000000" fill-rule="evenodd"/>
	<path id="Ellipse 157" d="M298.78 298.77C289.86 307.69 280.05 315.15 269.6 321.16L262.57 308.96C272.39 303.29 281.17 296.49 288.82 288.82L298.78 298.77Z" fill="#4482E5" fill-opacity="1.000000" fill-rule="evenodd"/>
	<path id="Ellipse 177" d="M298.78 298.77C289.86 307.69 280.05 315.15 269.6 321.16L267.88 318.16C278.53 312.01 288.03 304.65 296.33 296.33L298.78 298.77Z" fill="#3D7CE0" fill-opacity="1.000000" fill-rule="evenodd"/>
	<path id="Ellipse 158" d="M321.16 269.6C314.85 280.52 307.31 290.27 298.78 298.77L288.82 288.82C296.84 280.79 303.56 271.96 308.96 262.56L321.16 269.6Z" fill="#0F121B" fill-opacity="1.000000" fill-rule="evenodd"/>
	<path id="Ellipse 176" d="M321.16 269.6C314.85 280.52 307.31 290.27 298.78 298.77L296.25 296.25C304.94 287.56 312.21 278 318.07 267.82L321.16 269.6Z" fill="#0F121B" fill-opacity="1.000000" fill-rule="evenodd"/>
	<path id="Ellipse 159" d="M335.23 235.63C331.96 247.81 327.2 259.18 321.16 269.6L308.96 262.56C314.64 252.74 318.84 242.46 321.62 231.99L335.23 235.63Z" fill="#4482E5" fill-opacity="1.000000" fill-rule="evenodd"/>
	<path id="Ellipse 175" d="M335.23 235.63C331.96 247.81 327.2 259.18 321.16 269.6L318.14 267.86C324.28 257.21 328.84 246.08 331.85 234.73L335.23 235.63Z" fill="#4482E5" fill-opacity="1.000000" fill-rule="evenodd"/>
	<path id="Ellipse 160" d="M340.03 199.18C340.03 211.79 338.37 224.01 335.23 235.64L321.63 231.99C324.57 221.03 325.96 210.02 325.95 199.18L340.03 199.18Z" fill="#0F121B" fill-opacity="1.000000" fill-rule="evenodd"/>
	<path id="Ellipse 174" d="M340.03 199.18C340.03 211.79 338.37 224.01 335.23 235.64L331.83 234.72C335.01 222.85 336.53 210.92 336.51 199.18L340.03 199.18Z" fill="#0F121B" fill-opacity="1.000000" fill-rule="evenodd"/>
	<path id="Ellipse 161" d="M335.23 162.73C338.5 174.9 340.05 187.14 340.03 199.18L325.94 199.18C325.94 187.84 324.45 176.84 321.63 166.37L335.23 162.73Z" fill="#FABC38" fill-opacity="1.000000" fill-rule="evenodd"/>
	<path id="Ellipse 173" d="M335.23 162.73C338.5 174.9 340.05 187.14 340.03 199.18L336.54 199.18C336.54 186.89 334.92 174.97 331.86 163.63L335.23 162.73Z" fill="#FABC38" fill-opacity="1.000000" fill-rule="evenodd"/>
	<path id="Ellipse 162" d="M321.16 128.76C327.46 139.67 332.14 151.09 335.23 162.73L321.63 166.37C318.69 155.42 314.4 145.18 308.96 135.8L321.16 128.76Z" fill="#0F121B" fill-opacity="1.000000" fill-rule="evenodd"/>
	<path id="Ellipse 172" d="M321.16 128.76C327.46 139.67 332.14 151.09 335.23 162.73L331.82 163.64C328.64 151.77 324 140.68 318.1 130.52L321.16 128.76Z" fill="#0F121B" fill-opacity="1.000000" fill-rule="evenodd"/>
	<path id="Ellipse 163" d="M298.78 99.59C307.69 108.5 315.15 118.32 321.16 128.76L308.96 135.8C303.28 125.98 296.5 117.2 288.82 109.55L298.78 99.59Z" fill="#18B146" fill-opacity="1.000000" fill-rule="evenodd"/>
	<path id="Ellipse 171" d="M298.78 99.59C307.69 108.5 315.15 118.32 321.16 128.76L318.07 130.54C311.93 119.9 304.57 110.4 296.25 102.11L298.78 99.59Z" fill="#18B146" fill-opacity="1.000000" fill-rule="evenodd"/>
	<path id="Ellipse 164" d="M269.6 77.2C280.52 83.51 290.28 91.06 298.78 99.59L288.82 109.55C280.79 101.53 271.96 94.8 262.57 89.4L269.6 77.2Z" fill="#0F121B" fill-opacity="1.000000" fill-rule="evenodd"/>
	<path id="Ellipse 170" d="M269.6 77.2C280.52 83.51 290.28 91.06 298.78 99.59L296.28 102.09C287.59 93.4 278.02 86.12 267.84 80.27L269.6 77.2Z" fill="#0F121B" fill-opacity="1.000000" fill-rule="evenodd"/>
	<path id="Ellipse 165" d="M235.64 63.13C247.81 66.4 259.18 71.16 269.6 77.21L262.57 89.4C252.74 83.73 242.46 79.53 231.99 76.74L235.64 63.13Z" fill="#4482E5" fill-opacity="1.000000" fill-rule="evenodd"/>
	<path id="Ellipse 168" d="M235.64 63.13C247.81 66.4 259.18 71.16 269.6 77.21L267.84 80.26C257.2 74.12 246.07 69.56 234.72 66.54L235.64 63.13Z" fill="#3D7CE0" fill-opacity="1.000000" fill-rule="evenodd"/>
</svg>
