<svg width="172.778320" height="41.520355" viewBox="0 0 172.778 41.5204" fill="none" xmlns="http://www.w3.org/2000/svg" xmlns:xlink="http://www.w3.org/1999/xlink">
	<desc>
			Created with Pixso.
	</desc>
	<defs/>
	<rect id="Rectangle 17" x="0.507812" y="0.470688" rx="11.094445" width="40.589432" height="40.589432" fill="#3D7CE0" fill-opacity="1.000000"/>
	<path id="Vector" d="M27.57 9.85C27.88 9.13 27.65 8.28 27.02 7.82C26.38 7.35 25.52 7.4 24.93 7.91L11.55 19.75C11.03 20.22 10.84 20.96 11.08 21.62C11.33 22.27 11.96 22.72 12.65 22.72L18.48 22.72L14.46 32.2C14.15 32.92 14.38 33.77 15.01 34.23C15.65 34.7 16.51 34.65 17.1 34.14L30.48 22.3C31 21.83 31.19 21.09 30.95 20.43C30.7 19.78 30.08 19.34 29.38 19.34L23.55 19.34L27.57 9.85Z" fill="#FFFFFF" fill-opacity="1.000000" fill-rule="nonzero"/>
	<path id="Vector" d="M162.96 34.51C157.64 34.51 153.38 30.35 153.38 24.96C153.38 19.57 157.64 15.41 162.96 15.41C168.28 15.41 172.55 19.57 172.55 24.96C172.55 30.35 168.28 34.51 162.96 34.51ZM162.96 29.23C165.31 29.23 167.12 27.53 167.12 24.96C167.12 22.39 165.31 20.69 162.96 20.69C160.61 20.69 158.8 22.39 158.8 24.96C158.8 27.53 160.61 29.23 162.96 29.23Z" fill="#FFFFFF" fill-opacity="1.000000" fill-rule="nonzero"/>
	<path id="Vector" d="M152.5 19.9L152.5 22.07C152.5 29.81 147.11 34.51 140.02 34.51C132.06 34.51 126.35 28.65 126.35 21.38C126.35 14.04 132.17 8.18 139.62 8.18C144.47 8.18 148.56 10.57 150.69 13.97L145.77 16.79C144.72 15.12 142.44 13.82 139.58 13.82C135.32 13.82 132.13 16.97 132.13 21.42C132.13 25.72 135.17 28.87 140.09 28.87C143.45 28.87 145.66 27.39 146.57 24.96L139.8 24.96L139.8 19.9L152.5 19.9Z" fill="#FFFFFF" fill-opacity="1.000000" fill-rule="nonzero"/>
	<path id="Vector" d="M115.75 15.41C119.41 15.41 122.52 18.02 122.52 22.9L122.52 34.01L117.09 34.01L117.09 23.7C117.09 21.45 115.68 20.4 113.94 20.4C111.96 20.4 110.58 21.56 110.58 24.13L110.58 34.01L105.15 34.01L105.15 15.92L110.58 15.92L110.58 17.62C111.56 16.28 113.37 15.41 115.75 15.41Z" fill="#FFFFFF" fill-opacity="1.000000" fill-rule="nonzero"/>
	<path id="Vector" d="M99.19 14.33C97.42 14.33 95.94 12.84 95.94 11.07C95.94 9.3 97.42 7.82 99.19 7.82C100.97 7.82 102.45 9.3 102.45 11.07C102.45 12.84 100.97 14.33 99.19 14.33ZM96.48 34.01L96.48 15.92L101.91 15.92L101.91 34.01L96.48 34.01Z" fill="#FFFFFF" fill-opacity="1.000000" fill-rule="nonzero"/>
	<path id="Vector" d="M89.26 15.92L95.05 15.92L89.26 34.01L84.2 34.01L81.3 24.35L78.41 34.01L73.35 34.01L67.56 15.92L73.35 15.92L75.95 25.61L78.77 15.92L83.84 15.92L86.66 25.61L89.26 15.92Z" fill="#FFFFFF" fill-opacity="1.000000" fill-rule="nonzero"/>
	<path id="Vector" d="M69.54 8.68L69.54 14.26L63.03 14.26L63.03 34.01L57.24 34.01L57.24 14.26L50.73 14.26L50.73 8.68L69.54 8.68Z" fill="#FFFFFF" fill-opacity="1.000000" fill-rule="nonzero"/>
</svg>
