<svg width="24.914062" height="24.916687" viewBox="0 0 24.9141 24.9167" fill="none" xmlns="http://www.w3.org/2000/svg" xmlns:xlink="http://www.w3.org/1999/xlink">
	<desc>
			Created with Pixso.
	</desc>
	<defs/>
	<path id="google" d="M24.91 12.74C24.91 11.85 24.83 11 24.68 10.19L12.71 10.19L12.71 15.01L19.55 15.01C19.25 16.56 18.35 17.88 17.01 18.77L17.01 21.89L21.12 21.89C23.53 19.72 24.91 16.53 24.91 12.74Z" fill="#4285F4" fill-opacity="1.000000" fill-rule="evenodd"/>
	<path id="google" d="M12.71 24.91C16.14 24.91 19.02 23.8 21.12 21.89L17.01 18.77C15.87 19.51 14.42 19.96 12.71 19.96C9.39 19.96 6.6 17.76 5.6 14.82L1.35 14.82L1.35 18.05C3.44 22.12 7.74 24.91 12.71 24.91Z" fill="#34A853" fill-opacity="1.000000" fill-rule="evenodd"/>
	<path id="google" d="M5.6 14.82C5.34 14.07 5.2 13.27 5.2 12.45C5.2 11.63 5.34 10.83 5.6 10.09L5.6 6.86L1.35 6.86C0.49 8.54 0 10.44 0 12.45C0 14.46 0.49 16.37 1.35 18.05L5.6 14.82Z" fill="#FBBC05" fill-opacity="1.000000" fill-rule="evenodd"/>
	<path id="google" d="M12.71 4.95C14.57 4.95 16.25 5.58 17.57 6.81L21.21 3.24C19.01 1.23 16.14 0 12.71 0C7.74 0 3.44 2.79 1.35 6.86L5.6 10.09C6.6 7.14 9.39 4.95 12.71 4.95Z" fill="#EA4335" fill-opacity="1.000000" fill-rule="evenodd"/>
</svg>
