<svg width="25.343750" height="20.469727" viewBox="0 0 25.3438 20.4697" fill="none" xmlns="http://www.w3.org/2000/svg" xmlns:xlink="http://www.w3.org/1999/xlink">
	<desc>
			Created with Pixso.
	</desc>
	<defs/>
	<path id="telegram" d="M1.74 8.81C8.54 5.92 13.08 4.01 15.35 3.09C21.83 0.47 23.18 0.01 24.06 0C24.25 -0.01 24.68 0.04 24.96 0.26C25.2 0.45 25.26 0.7 25.29 0.88C25.32 1.05 25.36 1.46 25.33 1.77C24.98 5.37 23.46 14.09 22.69 18.12C22.36 19.83 21.71 20.4 21.1 20.45C19.74 20.58 18.71 19.58 17.39 18.74C15.34 17.43 14.18 16.61 12.19 15.33C9.89 13.85 11.38 13.04 12.69 11.71C13.03 11.36 19 6.07 19.12 5.59C19.14 5.53 19.15 5.31 19.01 5.19C18.88 5.07 18.67 5.11 18.53 5.14C18.32 5.19 15.04 7.3 8.68 11.48C7.75 12.11 6.91 12.41 6.15 12.39C5.32 12.38 3.71 11.94 2.53 11.56C1.07 11.09 -0.1 10.85 0 10.06C0.06 9.65 0.64 9.24 1.74 8.81Z" fill="#FFFFFF" fill-opacity="1.000000" fill-rule="nonzero"/>
</svg>
