<svg width="24.968750" height="15.409729" viewBox="0 0 24.9688 15.4097" fill="none" xmlns="http://www.w3.org/2000/svg" xmlns:xlink="http://www.w3.org/1999/xlink">
	<desc>
			Created with Pixso.
	</desc>
	<defs/>
	<path id="Vector" d="M13.59 15.4C5.06 15.4 0.2 9.63 0 0.01L4.28 0.01C4.42 7.06 7.57 10.05 10.06 10.67L10.06 0.01L14.09 0.01L14.09 6.09C16.54 5.83 19.14 3.05 20.01 0L24.03 0C23.7 1.58 23.04 3.08 22.1 4.4C21.17 5.72 19.96 6.84 18.57 7.68C20.12 8.45 21.5 9.53 22.6 10.86C23.7 12.2 24.5 13.74 24.96 15.4L20.53 15.4C19.59 12.48 17.21 10.21 14.09 9.9L14.09 15.4L13.6 15.4L13.59 15.4Z" fill="#FFFFFF" fill-opacity="1.000000" fill-rule="nonzero"/>
</svg>
