<svg width="19.555664" height="19.555542" viewBox="0 0 19.5557 19.5555" fill="none" xmlns="http://www.w3.org/2000/svg" xmlns:xlink="http://www.w3.org/1999/xlink">
	<desc>
			Created with Pixso.
	</desc>
	<defs>
		<clipPath id="clip9_7650">
			<rect id="Frame" rx="0.000000" width="18.555555" height="18.555555" transform="translate(0.500000 0.500000)" fill="white" fill-opacity="0"/>
		</clipPath>
	</defs>
	<rect id="Frame" rx="0.000000" width="18.555555" height="18.555555" transform="translate(0.500000 0.500000)" fill="#FFFFFF" fill-opacity="0"/>
	<g clip-path="url(#clip9_7650)">
		<path id="Vector" d="M15.14 8.96L10.83 4.65C10.68 4.49 10.6 4.29 10.6 4.07C10.6 3.86 10.68 3.65 10.84 3.5C10.99 3.35 11.19 3.27 11.41 3.26C11.62 3.26 11.82 3.34 11.98 3.49L17.68 9.2C17.76 9.27 17.82 9.36 17.86 9.46C17.9 9.56 17.92 9.67 17.92 9.77C17.92 9.88 17.9 9.99 17.86 10.08C17.82 10.18 17.76 10.27 17.68 10.35L11.98 16.05C11.82 16.2 11.62 16.28 11.41 16.28C11.19 16.28 10.99 16.19 10.84 16.04C10.68 15.89 10.6 15.69 10.6 15.47C10.6 15.26 10.68 15.05 10.83 14.9L15.14 10.59L2.44 10.59C2.22 10.59 2.02 10.5 1.86 10.35C1.71 10.2 1.62 9.99 1.62 9.77C1.62 9.56 1.71 9.35 1.86 9.2C2.02 9.04 2.22 8.96 2.44 8.96L15.14 8.96Z" fill="#F1F6FF" fill-opacity="1.000000" fill-rule="evenodd"/>
	</g>
</svg>
