<svg width="43.101562" height="28.082397" viewBox="0 0 43.1016 28.0824" fill="none" xmlns="http://www.w3.org/2000/svg" xmlns:xlink="http://www.w3.org/1999/xlink">
	<desc>
			Created with Pixso.
	</desc>
	<defs/>
	<path id="Polygon 3" d="M24.62 25.47L40.1 6.46C42.35 3.69 43.48 2.3 42.98 1.18C42.97 1.15 42.95 1.12 42.94 1.1C42.39 0 40.6 0 37.03 0L6.06 0C2.49 0 0.71 0 0.15 1.1C0.14 1.12 0.12 1.15 0.11 1.18C-0.39 2.3 0.74 3.69 2.99 6.46L18.48 25.47C19.88 27.2 20.58 28.06 21.51 28.08C21.53 28.08 21.56 28.08 21.58 28.08C22.51 28.06 23.21 27.2 24.62 25.47Z" fill="#FFFFFF" fill-opacity="1.000000" fill-rule="evenodd"/>
</svg>
