<svg width="28.000000" height="28.000000" viewBox="0 0 28 28" fill="none" xmlns="http://www.w3.org/2000/svg" xmlns:xlink="http://www.w3.org/1999/xlink">
	<desc>
			Created with Pixso.
	</desc>
	<defs>
		<clipPath id="clip9_9162">
			<rect id="Component 4" rx="0.000000" width="27.000000" height="27.000000" transform="translate(0.500000 0.500000)" fill="white" fill-opacity="0"/>
		</clipPath>
	</defs>
	<g clip-path="url(#clip9_9162)">
		<path id="Arrow" d="M14.7 2.29C14.31 1.9 13.68 1.9 13.29 2.29L10.29 5.29C9.9 5.68 9.9 6.31 10.29 6.7L13.29 9.7C13.68 10.09 14.31 10.09 14.7 9.7C15.09 9.31 15.09 8.68 14.7 8.29L13.42 7.01L13.42 5C13.42 5 13.41 5 13.4 5L14.7 3.7C15.09 3.31 15.09 2.68 14.7 2.29Z" fill="#FFFFFF" fill-opacity="1.000000" fill-rule="evenodd"/>
		<path id="Circle" d="M5 15C5 17.48 6 19.73 7.63 21.36C9.26 22.99 11.51 24 14 24C16.48 24 18.73 22.99 20.36 21.36C21.99 19.73 23 17.48 23 15C23 12.51 21.99 10.26 20.36 8.63C18.73 7 16.48 6 14 6C13.31 6 12.64 6.07 12 6.22" stroke="#FFFFFF" stroke-opacity="1.000000" stroke-width="2.000000" stroke-linecap="round"/>
		<path id="↳ Icon Color" d="M14.7 2.29C14.31 1.9 13.68 1.9 13.29 2.29L10.29 5.29C9.9 5.68 9.9 6.31 10.29 6.7L13.29 9.7C13.68 10.09 14.31 10.09 14.7 9.7C15.09 9.31 15.09 8.68 14.7 8.29L13.43 7.01C13.62 7 13.8 7 14 7C16.21 7 18.2 7.89 19.65 9.34C21.1 10.79 22 12.79 22 15C22 17.2 21.1 19.2 19.65 20.65C18.2 22.1 16.21 23 14 23C11.78 23 9.79 22.1 8.34 20.65C6.89 19.2 6 17.2 6 15C6 14.44 5.55 14 5 14C4.44 14 4 14.44 4 15C4 17.76 5.12 20.26 6.92 22.07C8.73 23.87 11.23 25 14 25C16.76 25 19.26 23.87 21.07 22.07C22.87 20.26 24 17.76 24 15C24 12.23 22.87 9.73 21.07 7.92C19.26 6.12 16.76 5 14 5C13.8 5 13.59 4.99 13.4 5L14.7 3.7C15.09 3.31 15.09 2.68 14.7 2.29Z" fill="#FFFFFF" fill-opacity="1.000000" fill-rule="nonzero"/>
	</g>
</svg>
