<svg width="28.000000" height="28.000000" viewBox="0 0 28 28" fill="none" xmlns="http://www.w3.org/2000/svg" xmlns:xlink="http://www.w3.org/1999/xlink">
	<desc>
			Created with Pixso.
	</desc>
	<defs>
		<clipPath id="clip29_4349">
			<rect id="Component 4" rx="0.000000" width="27.000000" height="27.000000" transform="translate(0.500000 0.500000)" fill="white" fill-opacity="0"/>
		</clipPath>
	</defs>
	<rect id="Component 4" rx="0.000000" width="27.000000" height="27.000000" transform="translate(0.500000 0.500000)" fill="#FFFFFF" fill-opacity="0"/>
	<g clip-path="url(#clip29_4349)">
		<path id="Vector" d="M9.12 17.75C13.61 17.75 17.25 14.67 17.25 10.87C17.25 7.07 13.61 4 9.12 4C4.63 4 1 7.07 1 10.87C1 12.38 1.57 13.77 2.54 14.91C2.41 15.28 2.2 15.6 1.99 15.87C1.8 16.12 1.61 16.3 1.47 16.43C1.4 16.5 1.34 16.55 1.3 16.58C1.28 16.59 1.26 16.6 1.26 16.61L1.25 16.62C1.03 16.78 0.94 17.06 1.03 17.31C1.11 17.57 1.35 17.75 1.62 17.75C2.47 17.75 3.33 17.53 4.05 17.26C4.41 17.12 4.74 16.97 5.03 16.81C6.23 17.41 7.63 17.75 9.12 17.75ZM18.5 10.87C18.5 15.26 14.62 18.56 10.04 18.96C10.99 21.86 14.14 24 17.87 24C19.36 24 20.76 23.66 21.96 23.06C22.25 23.22 22.59 23.37 22.95 23.51C23.66 23.78 24.52 24 25.37 24C25.64 24 25.88 23.82 25.97 23.56C26.05 23.3 25.96 23.02 25.74 22.86L25.73 22.85C25.72 22.85 25.71 22.84 25.69 22.82C25.65 22.79 25.59 22.75 25.52 22.68C25.38 22.55 25.19 22.36 25 22.12C24.79 21.85 24.58 21.52 24.45 21.16C25.42 20.02 25.99 18.63 25.99 17.12C25.99 13.49 22.68 10.52 18.47 10.26C18.49 10.46 18.49 10.66 18.49 10.87L18.5 10.87Z" fill="#FFFFFF" fill-opacity="1.000000" fill-rule="nonzero"/>
	</g>
</svg>
