<svg width="28.000000" height="28.000000" viewBox="0 0 28 28" fill="none" xmlns="http://www.w3.org/2000/svg" xmlns:xlink="http://www.w3.org/1999/xlink">
	<desc>
			Created with Pixso.
	</desc>
	<defs>
		<clipPath id="clip9_9221">
			<rect id="Component 4" rx="0.000000" width="27.000000" height="27.000000" transform="translate(0.500000 0.500000)" fill="white" fill-opacity="0"/>
		</clipPath>
	</defs>
	<g clip-path="url(#clip9_9221)">
		<path id="↳ Icon Color" d="M6.29 6.29C6.68 5.9 7.31 5.9 7.7 6.29L14 12.58L20.29 6.29C20.65 5.93 21.22 5.9 21.61 6.2L21.7 6.29C22.09 6.68 22.09 7.31 21.7 7.7L15.41 14L21.7 20.29C22.06 20.65 22.09 21.22 21.79 21.61L21.7 21.7C21.31 22.09 20.68 22.09 20.29 21.7L14 15.41L7.7 21.7C7.34 22.06 6.77 22.09 6.38 21.79L6.29 21.7C5.9 21.31 5.9 20.68 6.29 20.29L12.58 14L6.29 7.7C5.93 7.34 5.9 6.77 6.2 6.38L6.29 6.29Z" fill="#F1F6FF" fill-opacity="0.200000" fill-rule="nonzero"/>
	</g>
</svg>
