<svg width="28.000000" height="28.000000" viewBox="0 0 28 28" fill="none" xmlns="http://www.w3.org/2000/svg" xmlns:xlink="http://www.w3.org/1999/xlink">
	<path id="↳ Icon Color" d="M8.79 7.3C8.38 6.89 7.71 6.89 7.3 7.3C6.89 7.71 6.89 8.38 7.3 8.79L12.51 14L7.3 19.2C6.89 19.61 6.89 20.28 7.3 20.69C7.71 21.1 8.38 21.1 8.79 20.69L14 15.48L19.2 20.69C19.61 21.1 20.28 21.1 20.69 20.69C21.1 20.28 21.1 19.61 20.69 19.2L15.48 14L20.69 8.79C21.1 8.38 21.1 7.71 20.69 7.3C20.28 6.89 19.61 6.89 19.2 7.3L14 12.51L8.79 7.3Z" fill="#4D4F59" fill-opacity="1.000000" fill-rule="nonzero"/>
</svg>
