<svg width="28.000000" height="28.000000" viewBox="0 0 28 28" fill="none" xmlns="http://www.w3.org/2000/svg" xmlns:xlink="http://www.w3.org/1999/xlink">
	<desc>
			Created with Pixso.
	</desc>
	<defs>
		<clipPath id="clip40_4285">
			<rect id="Property 1=clover-solid 1" rx="0.000000" width="27.000000" height="27.000000" transform="translate(0.500000 0.500000)" fill="white" fill-opacity="0"/>
		</clipPath>
	</defs>
	<rect id="Property 1=clover-solid 1" rx="0.000000" width="27.000000" height="27.000000" transform="translate(0.500000 0.500000)" fill="#FFFFFF" fill-opacity="0"/>
	<g clip-path="url(#clip40_4285)">
		<path id="Vector" d="M13.63 3.87C13.06 3.31 12.3 3 11.5 3C9.84 3 8.49 4.34 8.49 6L8.49 6.25C8.49 6.83 8.66 7.41 8.95 7.91L9.88 9.45C9.93 9.54 9.94 9.6 9.92 9.66C9.92 9.72 9.89 9.78 9.83 9.83C9.77 9.89 9.71 9.92 9.65 9.93C9.6 9.94 9.53 9.94 9.44 9.88L7.91 8.96C7.4 8.66 6.83 8.5 6.24 8.5L6 8.5C4.34 8.49 3 9.84 3 11.5C3 12.3 3.32 13.06 3.87 13.63L3.93 13.69C4.1 13.86 4.1 14.13 3.93 14.3L3.87 14.36C3.32 14.92 3 15.69 3 16.48C3 18.15 4.34 19.49 6 19.49L6.25 19.49C6.83 19.49 7.41 19.33 7.91 19.03L9.45 18.11C9.54 18.05 9.6 18.05 9.66 18.06C9.71 18.07 9.78 18.1 9.83 18.16C9.89 18.21 9.92 18.27 9.93 18.33C9.94 18.38 9.94 18.45 9.88 18.54L8.96 20.08C8.66 20.58 8.5 21.16 8.5 21.74L8.5 21.99C8.5 23.64 9.84 25 11.51 25C12.3 25 13.07 24.68 13.63 24.12L13.69 24.06C13.86 23.89 14.13 23.89 14.3 24.06L14.36 24.12C14.92 24.68 15.69 25 16.48 25C18.14 25 19.49 23.65 19.49 21.99L19.49 21.74C19.49 21.16 19.33 20.58 19.03 20.08L18.11 18.54C18.05 18.45 18.05 18.39 18.06 18.33C18.07 18.27 18.1 18.21 18.16 18.16C18.22 18.1 18.28 18.07 18.33 18.06C18.38 18.05 18.45 18.05 18.54 18.11L20.08 19.03C20.58 19.33 21.16 19.49 21.75 19.49L21.99 19.49C23.64 19.49 25 18.15 25 16.48C25 15.69 24.67 14.92 24.12 14.36L24.06 14.3C23.89 14.13 23.89 13.86 24.06 13.69L24.12 13.63C24.68 13.06 25 12.3 25 11.5C25 9.84 23.65 8.49 21.99 8.49L21.75 8.49C21.16 8.49 20.58 8.66 20.08 8.96L18.54 9.88C18.45 9.93 18.39 9.94 18.33 9.93C18.28 9.92 18.21 9.89 18.16 9.83C18.1 9.77 18.07 9.71 18.06 9.65C18.05 9.6 18.05 9.53 18.11 9.45L19.03 7.91C19.33 7.4 19.49 6.83 19.49 6.24L19.49 6C19.49 4.34 18.14 3 16.48 3C15.68 3 14.92 3.31 14.35 3.87L14.3 3.93C14.13 4.1 13.85 4.1 13.69 3.93L13.63 3.87Z" fill="#FFFFFF" fill-opacity="1.000000" fill-rule="nonzero"/>
	</g>
</svg>
