<svg width="28.000000" height="28.000015" viewBox="0 0 28 28" fill="none" xmlns="http://www.w3.org/2000/svg" xmlns:xlink="http://www.w3.org/1999/xlink">
	<desc>
			Created with Pixso.
	</desc>
	<defs/>
	<rect id="Property 1=Component 3" rx="0.000000" width="27.000000" height="27.000000" transform="translate(0.500000 0.500000)" fill="#FFFFFF" fill-opacity="0"/>
	<path id="Vector" d="M17.46 15.76C17.67 16.45 17.78 17.19 17.78 17.95C17.78 18.71 17.67 19.44 17.46 20.13L19.61 21.02C19.92 20.05 20.09 19.02 20.09 17.95C20.09 16.87 19.92 15.84 19.61 14.87L17.46 15.76Z" fill="#FFFFFF" fill-opacity="1.000000" fill-rule="nonzero"/>
	<path id="Vector" d="M3.95 17.95C3.95 21.31 6.68 24.04 10.05 24.04C13.41 24.04 16.14 21.31 16.14 17.95C16.14 14.59 13.41 11.85 10.05 11.85C6.68 11.85 3.95 14.59 3.95 17.95ZM13.83 17.95C13.83 20.03 12.13 21.73 10.05 21.73C7.96 21.73 6.26 20.03 6.26 17.95C6.26 15.86 7.96 14.16 10.05 14.16C12.13 14.16 13.83 15.86 13.83 17.95Z" fill="#FFFFFF" fill-opacity="1.000000" fill-rule="nonzero"/>
	<path id="Vector" d="M7.9 17.95C7.9 19.13 8.86 20.09 10.04 20.09C11.22 20.09 12.19 19.13 12.19 17.95C12.19 16.77 11.22 15.8 10.04 15.8C8.86 15.8 7.9 16.77 7.9 17.95Z" fill="#FFFFFF" fill-opacity="1.000000" fill-rule="nonzero"/>
	<path id="Vector" d="M2.31 17.95C2.31 17.19 2.42 16.45 2.62 15.76L0.48 14.87C0.16 15.84 0 16.87 0 17.95C0 19.02 0.16 20.05 0.48 21.02L2.62 20.13C2.42 19.44 2.31 18.71 2.31 17.95Z" fill="#FFFFFF" fill-opacity="1.000000" fill-rule="nonzero"/>
	<path id="Vector" d="M13.75 11.16C15.05 11.87 16.12 12.94 16.83 14.25L18.98 13.36C18.02 11.5 16.5 9.97 14.63 9.01L13.75 11.16Z" fill="#FFFFFF" fill-opacity="1.000000" fill-rule="nonzero"/>
	<path id="Vector" d="M10.04 10.21C10.8 10.21 11.53 10.32 12.23 10.53L13.12 8.38C12.15 8.07 11.12 7.9 10.04 7.9C8.97 7.9 7.94 8.07 6.97 8.38L7.85 10.53C8.55 10.32 9.28 10.21 10.04 10.21Z" fill="#FFFFFF" fill-opacity="1.000000" fill-rule="nonzero"/>
	<path id="Vector" d="M6.34 11.16L5.45 9.01C3.59 9.97 2.07 11.5 1.1 13.36L3.25 14.25C3.96 12.94 5.04 11.87 6.34 11.16Z" fill="#FFFFFF" fill-opacity="1.000000" fill-rule="nonzero"/>
	<path id="Vector" d="M3.25 21.65L1.1 22.54C2.07 24.4 3.59 25.92 5.45 26.88L6.34 24.74C5.04 24.03 3.96 22.95 3.25 21.65Z" fill="#FFFFFF" fill-opacity="1.000000" fill-rule="nonzero"/>
	<path id="Vector" d="M10.04 25.68C9.28 25.68 8.55 25.57 7.85 25.37L6.97 27.51C7.94 27.83 8.97 28 10.04 28C11.12 28 12.15 27.83 13.12 27.51L12.23 25.37C11.53 25.57 10.8 25.68 10.04 25.68Z" fill="#FFFFFF" fill-opacity="1.000000" fill-rule="nonzero"/>
	<path id="Vector" d="M13.75 24.74L14.63 26.88C16.5 25.92 18.02 24.4 18.98 22.54L16.83 21.65C16.12 22.95 15.05 24.03 13.75 24.74Z" fill="#FFFFFF" fill-opacity="1.000000" fill-rule="nonzero"/>
	<path id="Vector" d="M27.51 6.97L25.37 7.86C25.57 8.55 25.69 9.28 25.69 10.04C25.69 10.8 25.57 11.54 25.37 12.23L27.51 13.12C27.83 12.15 28 11.12 28 10.04C28 8.97 27.83 7.94 27.51 6.97Z" fill="#FFFFFF" fill-opacity="1.000000" fill-rule="nonzero"/>
	<path id="Vector" d="M24.04 10.04C24.04 6.68 21.31 3.95 17.95 3.95C15.85 3.95 14.01 5.01 12.91 6.61C13.71 6.82 14.47 7.1 15.19 7.46C15.88 6.72 16.86 6.26 17.95 6.26C20.03 6.26 21.73 7.96 21.73 10.04C21.73 11.13 21.27 12.11 20.53 12.8C20.89 13.52 21.17 14.29 21.37 15.08C22.98 13.98 24.04 12.13 24.04 10.04Z" fill="#FFFFFF" fill-opacity="1.000000" fill-rule="nonzero"/>
	<path id="Vector" d="M19.67 11.32C19.93 10.96 20.09 10.52 20.09 10.04C20.09 8.86 19.13 7.9 17.94 7.9C17.47 7.9 17.02 8.06 16.67 8.32C17.84 9.13 18.85 10.15 19.67 11.32Z" fill="#FFFFFF" fill-opacity="1.000000" fill-rule="nonzero"/>
	<path id="Vector" d="M24.74 6.34L26.88 5.45C25.92 3.59 24.4 2.07 22.53 1.11L21.65 3.25C22.95 3.96 24.03 5.04 24.74 6.34Z" fill="#FFFFFF" fill-opacity="1.000000" fill-rule="nonzero"/>
	<path id="Vector" d="M11.17 6.31C11.88 5.02 12.95 3.96 14.25 3.25L13.35 1.1C11.2 2.21 9.5 4.08 8.6 6.35C9.08 6.29 9.56 6.26 10.04 6.26C10.42 6.26 10.8 6.28 11.17 6.31Z" fill="#FFFFFF" fill-opacity="1.000000" fill-rule="nonzero"/>
	<path id="Vector" d="M21.68 16.82C21.71 17.19 21.73 17.57 21.73 17.95C21.73 18.43 21.7 18.91 21.64 19.39C23.91 18.49 25.78 16.79 26.89 14.63L24.74 13.75C24.03 15.04 22.97 16.11 21.68 16.82Z" fill="#FFFFFF" fill-opacity="1.000000" fill-rule="nonzero"/>
	<path id="Vector" d="M17.95 2.31C18.71 2.31 19.44 2.42 20.14 2.62L21.02 0.48C20.05 0.16 19.02 0 17.95 0C16.88 0 15.84 0.16 14.87 0.48L15.76 2.62C16.46 2.42 17.19 2.31 17.95 2.31Z" fill="#FFFFFF" fill-opacity="1.000000" fill-rule="nonzero"/>
</svg>
