<svg width="20.000000" height="20.000000" viewBox="0 0 20 20" fill="none" xmlns="http://www.w3.org/2000/svg" xmlns:xlink="http://www.w3.org/1999/xlink">
	<desc>
			Created with Pixso.
	</desc>
	<defs/>
	<g opacity="0.600000">
		<path id="Vector" d="M16.25 12.16C18.48 11.73 20 10.92 20 10L20 8.33C19.09 8.97 17.76 9.4 16.25 9.67L16.25 12.16ZM16.06 8.44C18.41 8.02 20 7.2 20 6.25L20 4.58C18.61 5.56 16.23 6.09 13.72 6.21C14.87 6.77 15.72 7.52 16.06 8.44ZM20 2.5C20 1.12 16.64 0 12.5 0C8.35 0 5 1.12 5 2.5C5 3.87 8.35 5 12.5 5C16.64 5 20 3.87 20 2.5Z" fill="#FFFFFF" fill-opacity="1.000000" fill-rule="nonzero"/>
	</g>
	<path id="Vector" d="M7.5 12.5C11.64 12.5 15 11.1 15 9.37C15 7.64 11.64 6.25 7.5 6.25C3.35 6.25 0 7.64 0 9.37C0 11.1 3.35 12.5 7.5 12.5ZM0 15.83L0 17.5C0 18.87 3.35 20 7.5 20C11.64 20 15 18.87 15 17.5L15 15.83C13.38 16.96 10.43 17.5 7.5 17.5C4.56 17.5 1.61 16.96 0 15.83ZM0 11.73L0 13.75C0 15.12 3.35 16.25 7.5 16.25C11.64 16.25 15 15.12 15 13.75L15 11.73C13.38 13.06 10.43 13.75 7.5 13.75C4.56 13.75 1.61 13.06 0 11.73Z" fill="#FFFFFF" fill-opacity="1.000000" fill-rule="nonzero"/>
</svg>
