<svg width="197.777344" height="204.048279" viewBox="0 0 197.777 204.048" fill="none" xmlns="http://www.w3.org/2000/svg" xmlns:xlink="http://www.w3.org/1999/xlink">
	<desc>
			Created with Pixso.
	</desc>
	<defs>
		<filter id="filter_9_8907_dd" x="0.000000" y="6.213989" width="197.714844" height="197.834290" filterUnits="userSpaceOnUse" color-interpolation-filters="sRGB">
			<feFlood flood-opacity="0" result="BackgroundImageFix"/>
			<feColorMatrix in="SourceAlpha" type="matrix" values="0 0 0 0 0 0 0 0 0 0 0 0 0 0 0 0 0 0 127 0" result="hardAlpha"/>
			<feOffset dx="0" dy="0"/>
			<feGaussianBlur stdDeviation="3.89207"/>
			<feComposite in2="hardAlpha" operator="out" k2="-1" k3="1"/>
			<feColorMatrix type="matrix" values="0 0 0 0 0 0 0 0 0 0 0 0 0 0 0 0 0 0 0.051 0"/>
			<feBlend mode="normal" in2="BackgroundImageFix" result="effect_dropShadow_1"/>
			<feBlend mode="normal" in="SourceGraphic" in2="effect_dropShadow_1" result="shape"/>
		</filter>
		<filter id="filter_9_8908_dd" x="0.062500" y="0.000000" width="197.714844" height="197.834290" filterUnits="userSpaceOnUse" color-interpolation-filters="sRGB">
			<feFlood flood-opacity="0" result="BackgroundImageFix"/>
			<feColorMatrix in="SourceAlpha" type="matrix" values="0 0 0 0 0 0 0 0 0 0 0 0 0 0 0 0 0 0 127 0" result="hardAlpha"/>
			<feOffset dx="0" dy="0"/>
			<feGaussianBlur stdDeviation="3.89207"/>
			<feComposite in2="hardAlpha" operator="out" k2="-1" k3="1"/>
			<feColorMatrix type="matrix" values="0 0 0 0 0 0 0 0 0 0 0 0 0 0 0 0 0 0 0.051 0"/>
			<feBlend mode="normal" in2="BackgroundImageFix" result="effect_dropShadow_1"/>
			<feBlend mode="normal" in="SourceGraphic" in2="effect_dropShadow_1" result="shape"/>
		</filter>
		<radialGradient gradientTransform="translate(98.857 105.131) rotate(90) scale(156.566 156.459)" cx="0.000000" cy="0.000000" r="1.000000" id="paint_radial_9_8907_0" gradientUnits="userSpaceOnUse">
			<stop offset="0.165000" stop-color="#459DC9"/>
			<stop offset="1.000000" stop-color="#003CFF"/>
		</radialGradient>
		<radialGradient gradientTransform="translate(98.9195 98.9172) rotate(90) scale(156.566 156.459)" cx="0.000000" cy="0.000000" r="1.000000" id="paint_radial_9_8908_0" gradientUnits="userSpaceOnUse">
			<stop offset="0.480000" stop-color="#61C2FF"/>
			<stop offset="1.000000" stop-color="#003CFF"/>
		</radialGradient>
		<radialGradient gradientTransform="translate(98.92 98.9186) rotate(90) scale(143.519 143.421)" cx="0.000000" cy="0.000000" r="1.000000" id="paint_radial_9_8909_0" gradientUnits="userSpaceOnUse">
			<stop offset="0.170393" stop-color="#66BAFF"/>
			<stop offset="0.600077" stop-color="#0051FF"/>
		</radialGradient>
	</defs>
	<g filter="url(#filter_9_8907_dd)">
		<ellipse id="Ellipse 149" cx="98.855469" cy="105.131134" rx="87.181175" ry="87.240936" fill="url(#paint_radial_9_8907_0)" fill-opacity="1.000000"/>
	</g>
	<g filter="url(#filter_9_8908_dd)">
		<ellipse id="Ellipse 145" cx="98.917969" cy="98.917145" rx="87.181175" ry="87.240936" fill="url(#paint_radial_9_8908_0)" fill-opacity="1.000000"/>
	</g>
	<ellipse id="Ellipse 152" cx="98.921875" cy="98.918579" rx="79.916061" ry="79.970871" fill="url(#paint_radial_9_8909_0)" fill-opacity="0.800000"/>
	<ellipse id="Ellipse 152" cx="98.921875" cy="98.918579" rx="80.305267" ry="80.360077" stroke="#76C1FF" stroke-opacity="1.000000" stroke-width="0.778414"/>
	<path id="Vector" d="M116.26 72.5C117.06 70.6 116.46 68.39 114.82 67.17C113.18 65.95 110.94 66.06 109.4 67.42L74.64 98.41C73.28 99.63 72.8 101.58 73.43 103.29C74.07 105.01 75.7 106.17 77.51 106.17L92.65 106.17L82.21 130.99C81.4 132.89 82 135.1 83.64 136.32C85.29 137.53 87.53 137.42 89.06 136.07L123.82 105.08C125.18 103.86 125.67 101.91 125.03 100.19C124.39 98.48 122.78 97.33 120.96 97.33L105.82 97.33L116.26 72.5Z" fill="#2E81FF" fill-opacity="1.000000" fill-rule="nonzero"/>
</svg>
