<svg width="14.000000" height="14.000000" viewBox="0 0 14 14" fill="none" xmlns="http://www.w3.org/2000/svg" xmlns:xlink="http://www.w3.org/1999/xlink">
	<desc>
			Created with Pixso.
	</desc>
	<defs/>
	<g opacity="0.600000">
		<path id="Vector" d="M11.37 8.51C12.94 8.21 14 7.64 14 7L14 5.83C13.36 6.28 12.43 6.58 11.37 6.77L11.37 8.51ZM11.24 5.91C12.88 5.61 14 5.03 14 4.37L14 3.2C13.02 3.89 11.35 4.26 9.6 4.35C10.41 4.74 11 5.26 11.24 5.91ZM14 1.75C14 0.78 11.64 0 8.75 0C5.85 0 3.5 0.78 3.5 1.75C3.5 2.71 5.85 3.5 8.75 3.5C11.64 3.5 14 2.71 14 1.75Z" fill="#F0F4FF" fill-opacity="0.400000" fill-rule="nonzero"/>
	</g>
	<path id="Vector" d="M5.25 8.75C8.14 8.75 10.5 7.77 10.5 6.56C10.5 5.35 8.14 4.37 5.25 4.37C2.35 4.37 0 5.35 0 6.56C0 7.77 2.35 8.75 5.25 8.75ZM0 11.08L0 12.25C0 13.21 2.35 14 5.25 14C8.14 14 10.5 13.21 10.5 12.25L10.5 11.08C9.37 11.87 7.3 12.25 5.25 12.25C3.19 12.25 1.12 11.87 0 11.08ZM0 8.21L0 9.62C0 10.59 2.35 11.37 5.25 11.37C8.14 11.37 10.5 10.59 10.5 9.62L10.5 8.21C9.37 9.14 7.3 9.62 5.25 9.62C3.19 9.62 1.12 9.14 0 8.21Z" fill="#F0F4FF" fill-opacity="0.400000" fill-rule="nonzero"/>
</svg>
