<svg width="28.000000" height="30.000000" viewBox="0 0 28 30" fill="none" xmlns="http://www.w3.org/2000/svg" xmlns:xlink="http://www.w3.org/1999/xlink">
	<desc>
			Created with Pixso.
	</desc>
	<defs>
		<clipPath id="clip9_9143">
			<rect id="Component 4" rx="0.000000" width="27.000000" height="29.000000" transform="translate(0.500000 0.500000)" fill="white" fill-opacity="0"/>
		</clipPath>
	</defs>
	<rect id="Component 4" rx="0.000000" width="27.000000" height="29.000000" transform="translate(0.500000 0.500000)" fill="#FFFFFF" fill-opacity="0"/>
	<g clip-path="url(#clip9_9143)">
		<path id="Vector" d="M4.55 7C3.14 7 2 8.12 2 9.5L2 12C2 12.34 2.29 12.61 2.62 12.72C3.37 12.98 3.91 13.67 3.91 14.5C3.91 15.32 3.37 16.01 2.62 16.27C2.29 16.38 2 16.65 2 17L2 19.5C2 20.87 3.14 22 4.55 22L22.44 22C23.85 22 25 20.87 25 19.5L25 17C25 16.65 24.7 16.38 24.37 16.27C23.62 16.01 23.08 15.32 23.08 14.5C23.08 13.67 23.62 12.98 24.37 12.72C24.7 12.61 25 12.34 25 12L25 9.5C25 8.12 23.85 7 22.44 7L4.55 7ZM7.1 11.37L7.1 17.62C7.1 17.96 7.39 18.25 7.75 18.25L19.25 18.25C19.6 18.25 19.89 17.96 19.89 17.62L19.89 11.37C19.89 11.03 19.6 10.75 19.25 10.75L7.75 10.75C7.39 10.75 7.1 11.03 7.1 11.37ZM5.83 10.75C5.83 10.05 6.4 9.5 7.1 9.5L19.89 9.5C20.59 9.5 21.16 10.05 21.16 10.75L21.16 18.25C21.16 18.94 20.59 19.5 19.89 19.5L7.1 19.5C6.4 19.5 5.83 18.94 5.83 18.25L5.83 10.75Z" fill="#FFFFFF" fill-opacity="1.000000" fill-rule="nonzero"/>
	</g>
</svg>
