<svg width="28.000000" height="28.000000" viewBox="0 0 28 28" fill="none" xmlns="http://www.w3.org/2000/svg" xmlns:xlink="http://www.w3.org/1999/xlink">
	<desc>
			Created with Pixso.
	</desc>
	<defs>
		<clipPath id="clip9_9134">
			<rect id="Component 4" rx="0.000000" width="27.000000" height="27.000000" transform="translate(0.500000 0.500000)" fill="white" fill-opacity="0"/>
		</clipPath>
	</defs>
	<g clip-path="url(#clip9_9134)">
		<path id="↳ Icon Color" d="M10.39 5C10.25 5 10.11 5.03 9.98 5.09L6.27 6.99C6.12 7.06 5.99 7.17 5.9 7.32C5.89 7.33 5.88 7.35 5.87 7.36L3.14 12.09C3.13 12.09 3.13 12.1 3.12 12.11C3.08 12.17 3.06 12.24 3.04 12.31C3.01 12.38 3 12.45 3 12.53C2.99 12.63 3 12.73 3.02 12.83C3.05 12.93 3.09 13.03 3.14 13.11C3.18 13.17 3.23 13.23 3.28 13.28L13.34 23.71C13.35 23.72 13.37 23.74 13.38 23.75C13.53 23.9 13.73 23.98 13.93 23.99L13.95 23.99L13.95 23.99C13.97 23.99 13.98 24 14 24C14.02 24 14.05 23.99 14.07 23.99C14.27 23.97 14.46 23.89 14.61 23.75C14.62 23.74 14.64 23.72 14.65 23.71L24.71 13.28C24.72 13.28 24.72 13.27 24.73 13.27C24.78 13.21 24.83 13.14 24.88 13.06C24.91 12.99 24.94 12.92 24.96 12.84C24.99 12.74 25 12.62 24.99 12.51C24.98 12.42 24.96 12.33 24.93 12.25C24.91 12.2 24.89 12.16 24.87 12.12C24.85 12.09 24.84 12.06 24.82 12.03L21.62 7.3C21.53 7.17 21.42 7.07 21.3 7.01L18.05 5.12C17.92 5.04 17.76 5 17.6 5L10.39 5ZM20.52 8.99L17.42 10.16L18.52 13.21C18.52 13.21 18.52 13.22 18.52 13.22L22.58 12.04L20.52 8.99ZM16.68 13.55L15.65 10.7L12.34 10.7L11.31 13.55L16.68 13.55ZM9.47 13.22C9.47 13.22 9.47 13.21 9.47 13.21L10.56 10.19L7.07 8.99L5.32 12.02L9.47 13.22ZM9.07 7.68L10.6 6.9L17.37 6.9L18.68 7.66L15.67 8.79L12.31 8.79L9.07 7.68ZM11.15 18.76L7.03 14.49L9.65 15.24L11.15 18.76ZM14 20.71L11.74 15.45L16.25 15.45L14 20.71ZM16.84 18.76L18.34 15.24L20.96 14.49L16.84 18.76Z" fill="#FFFFFF" fill-opacity="1.000000" fill-rule="evenodd"/>
	</g>
</svg>
