<svg width="28.000000" height="28.000000" viewBox="0 0 28 28" fill="none" xmlns="http://www.w3.org/2000/svg" xmlns:xlink="http://www.w3.org/1999/xlink">
	<desc>
			Created with Pixso.
	</desc>
	<defs/>
	<path id="↳ Icon Color" d="M16.9 6C16.4 6 16 6.4 16 6.89C16 7.39 16.4 7.8 16.9 7.8L18.92 7.8L15.26 11.46C14.91 11.81 14.91 12.38 15.26 12.73C15.61 13.08 16.18 13.08 16.53 12.73L20.19 9.07L20.19 11.1C20.19 11.59 20.6 12 21.09 12C21.59 12 22 11.59 22 11.1L22 6.89C22 6.4 21.59 6 21.09 6L16.9 6ZM12.73 16.53C13.08 16.18 13.08 15.61 12.73 15.26C12.38 14.91 11.81 14.91 11.46 15.26L7.8 18.92L7.8 16.9C7.8 16.4 7.39 16 6.9 16C6.4 16 6 16.4 6 16.9L6 21.1C6 21.59 6.4 22 6.9 22L11.09 22C11.59 22 11.99 21.59 11.99 21.1C11.99 20.6 11.59 20.2 11.09 20.2L9.07 20.2L12.73 16.53Z" fill="#4D4F59" fill-opacity="1.000000" fill-rule="evenodd"/>
</svg>
