<svg width="28.000000" height="28.000000" viewBox="0 0 28 28" fill="none" xmlns="http://www.w3.org/2000/svg" xmlns:xlink="http://www.w3.org/1999/xlink">
	<desc>
			Created with Pixso.
	</desc>
	<defs>
		<clipPath id="clip79_7864">
			<rect id="Component 4" rx="0.000000" width="27.000000" height="27.000000" transform="translate(0.500000 0.500000)" fill="white" fill-opacity="0"/>
		</clipPath>
	</defs>
	<rect id="Component 4" rx="0.000000" width="27.000000" height="27.000000" transform="translate(0.500000 0.500000)" fill="#FFFFFF" fill-opacity="0"/>
	<g clip-path="url(#clip79_7864)">
		<path id="Vector" d="M11.18 5.95L12.67 8.5L12.62 8.5L9.53 8.5C8.58 8.5 7.81 7.73 7.81 6.78C7.81 5.83 8.58 5.06 9.53 5.06L9.62 5.06C10.26 5.06 10.86 5.4 11.18 5.95ZM5.75 6.78C5.75 7.4 5.89 7.98 6.16 8.5L4.37 8.5C3.61 8.5 3 9.11 3 9.87L3 12.62C3 13.38 3.61 14 4.37 14L23.62 14C24.38 14 25 13.38 25 12.62L25 9.87C25 9.11 24.38 8.5 23.62 8.5L21.83 8.5C22.1 7.98 22.25 7.4 22.25 6.78C22.25 4.69 20.55 3 18.46 3L18.37 3C17 3 15.73 3.72 15.03 4.9L14 6.67L12.96 4.91C12.26 3.72 10.99 3 9.62 3L9.53 3C7.44 3 5.75 4.69 5.75 6.78ZM20.18 6.78C20.18 7.73 19.41 8.5 18.46 8.5L15.37 8.5L15.32 8.5L16.81 5.95C17.14 5.4 17.73 5.06 18.37 5.06L18.46 5.06C19.41 5.06 20.18 5.83 20.18 6.78ZM4.37 15.37L4.37 22.93C4.37 24.07 5.29 25 6.43 25L12.62 25L12.62 15.37L4.37 15.37ZM15.37 25L21.56 25C22.7 25 23.62 24.07 23.62 22.93L23.62 15.37L15.37 15.37L15.37 25Z" fill="#FFFFFF" fill-opacity="1.000000" fill-rule="nonzero"/>
	</g>
</svg>
