<svg width="18.000000" height="18.000000" viewBox="0 0 18 18" fill="none" xmlns="http://www.w3.org/2000/svg" xmlns:xlink="http://www.w3.org/1999/xlink">
	<desc>
			Created with Pixso.
	</desc>
	<defs/>
	<g opacity="0.600000">
		<path id="Vector" d="M14.62 10.94C16.63 10.55 18 9.83 18 9L18 7.49C17.18 8.07 15.98 8.46 14.62 8.71L14.62 10.94ZM14.46 7.6C16.56 7.22 18 6.47 18 5.62L18 4.12C16.75 5 14.6 5.48 12.35 5.59C13.38 6.09 14.15 6.77 14.46 7.6ZM18 2.25C18 1 14.97 0 11.25 0C7.52 0 4.5 1 4.5 2.25C4.5 3.49 7.52 4.5 11.25 4.5C14.97 4.5 18 3.49 18 2.25Z" fill="#FABC38" fill-opacity="1.000000" fill-rule="nonzero"/>
	</g>
	<path id="Vector" d="M6.75 11.25C10.47 11.25 13.5 9.99 13.5 8.43C13.5 6.88 10.47 5.62 6.75 5.62C3.02 5.62 0 6.88 0 8.43C0 9.99 3.02 11.25 6.75 11.25ZM0 14.24L0 15.75C0 16.99 3.02 18 6.75 18C10.47 18 13.5 16.99 13.5 15.75L13.5 14.24C12.04 15.27 9.39 15.75 6.75 15.75C4.1 15.75 1.45 15.27 0 14.24ZM0 10.56L0 12.37C0 13.61 3.02 14.62 6.75 14.62C10.47 14.62 13.5 13.61 13.5 12.37L13.5 10.56C12.04 11.75 9.39 12.37 6.75 12.37C4.1 12.37 1.45 11.75 0 10.56Z" fill="#FABC38" fill-opacity="1.000000" fill-rule="nonzero"/>
</svg>
