<svg width="136.000000" height="136.000000" viewBox="0 0 136 136" fill="none" xmlns="http://www.w3.org/2000/svg" xmlns:xlink="http://www.w3.org/1999/xlink">
	<desc>
			Created with Pixso.
	</desc>
	<defs/>
	<rect id="Rectangle 17" rx="37.173340" width="136.000000" height="136.000000" fill="#397CE6" fill-opacity="1.000000"/>
	<path id="Vector" d="M90.69 31.45C91.72 29.02 90.95 26.19 88.83 24.63C86.71 23.07 83.82 23.21 81.84 24.95L37 64.61C35.25 66.17 34.62 68.67 35.45 70.86C36.27 73.06 38.37 74.55 40.7 74.55L60.23 74.55L46.76 106.32C45.73 108.74 46.5 111.58 48.62 113.13C50.74 114.69 53.63 114.55 55.61 112.81L100.44 73.15C102.19 71.59 102.82 69.09 102 66.9C101.18 64.7 99.09 63.23 96.75 63.23L77.22 63.23L90.69 31.45Z" fill="#FFFFFF" fill-opacity="1.000000" fill-rule="nonzero"/>
</svg>
