<svg width="28.000000" height="28.000000" viewBox="0 0 28 28" fill="none" xmlns="http://www.w3.org/2000/svg" xmlns:xlink="http://www.w3.org/1999/xlink">
	<desc>
			Created with Pixso.
	</desc>
	<defs/>
	<path id="Vector" d="M21.28 7.78C21.57 7.48 21.57 7.01 21.28 6.71C20.98 6.42 20.51 6.42 20.21 6.71L18.71 8.21L18.28 8.65L17.31 7.68C16.72 7.1 15.77 7.1 15.18 7.68L14.43 8.43C14.37 8.49 14.33 8.56 14.28 8.62C13.26 8.22 12.16 7.99 11 7.99C6.03 7.99 2 12.03 2 17C2 21.96 6.03 26 11 26C15.96 26 20 21.96 20 17C20 15.84 19.77 14.73 19.37 13.71C19.43 13.66 19.5 13.61 19.56 13.56L20.31 12.81C20.89 12.22 20.89 11.27 20.31 10.68L19.33 9.71L19.78 9.28L21.28 7.78ZM11 12.5C8.51 12.5 6.5 14.51 6.5 17C6.5 17.41 6.16 17.75 5.75 17.75C5.33 17.75 5 17.41 5 17C5 13.69 7.69 11 11 11C11.41 11 11.75 11.33 11.75 11.75C11.75 12.16 11.41 12.5 11 12.5Z" fill="#FFFFFF" fill-opacity="1.000000" fill-rule="nonzero"/>
	<path id="Vector" d="M23.51 8.98C23.22 8.69 22.74 8.69 22.45 8.98C22.16 9.27 22.16 9.75 22.45 10.04L23.2 10.79C23.35 10.94 23.54 11.01 23.73 11.01C23.92 11.01 24.11 10.94 24.26 10.79C24.55 10.5 24.55 10.02 24.26 9.73L23.51 8.98Z" fill="#FFFFFF" fill-opacity="1.000000" fill-rule="nonzero"/>
	<path id="Vector" d="M17.95 5.54C18.1 5.69 18.29 5.76 18.48 5.76C18.67 5.76 18.86 5.69 19.01 5.54C19.3 5.25 19.3 4.77 19.01 4.48L18.26 3.73C17.97 3.44 17.49 3.44 17.2 3.73C16.91 4.02 16.91 4.5 17.2 4.79L17.95 5.54Z" fill="#FFFFFF" fill-opacity="1.000000" fill-rule="nonzero"/>
	<path id="Vector" d="M20.75 5C21.16 5 21.5 4.66 21.5 4.25L21.5 2.75C21.5 2.33 21.16 2 20.75 2C20.33 2 20 2.33 20 2.75L20 4.25C20 4.66 20.33 5 20.75 5Z" fill="#FFFFFF" fill-opacity="1.000000" fill-rule="nonzero"/>
	<path id="Vector" d="M25.25 6.52L23.75 6.52C23.33 6.52 23 6.86 23 7.27C23 7.69 23.33 8.02 23.75 8.02L25.25 8.02C25.66 8.02 26 7.69 26 7.27C26 6.86 25.66 6.52 25.25 6.52Z" fill="#FFFFFF" fill-opacity="1.000000" fill-rule="nonzero"/>
	<path id="Vector" d="M22.48 5.54C22.63 5.69 22.82 5.76 23.01 5.76C23.2 5.76 23.39 5.69 23.54 5.54L25.04 4.04C25.33 3.75 25.33 3.27 25.04 2.98C24.75 2.69 24.27 2.69 23.98 2.98L22.48 4.48C22.19 4.77 22.19 5.25 22.48 5.54Z" fill="#FFFFFF" fill-opacity="1.000000" fill-rule="nonzero"/>
</svg>
