<svg width="22.000000" height="22.000000" viewBox="0 0 22 22" fill="none" xmlns="http://www.w3.org/2000/svg" xmlns:xlink="http://www.w3.org/1999/xlink">
	<desc>
			Created with Pixso.
	</desc>
	<defs>
		<clipPath id="clip42_6582">
			<rect id="Component 4" rx="0.000000" width="21.000000" height="21.000000" transform="translate(0.500000 0.500000)" fill="white" fill-opacity="0"/>
		</clipPath>
	</defs>
	<rect id="Component 4" rx="0.000000" width="21.000000" height="21.000000" transform="translate(0.500000 0.500000)" fill="#FFFFFF" fill-opacity="0"/>
	<g clip-path="url(#clip42_6582)">
		<path id="Vector" d="M11.5 11C12.78 11 14.02 10.52 14.93 9.68C15.84 8.83 16.35 7.69 16.35 6.5C16.35 5.3 15.84 4.16 14.93 3.31C14.02 2.47 12.78 2 11.5 2C10.21 2 8.97 2.47 8.06 3.31C7.15 4.16 6.64 5.3 6.64 6.5C6.64 7.69 7.15 8.83 8.06 9.68C8.97 10.52 10.21 11 11.5 11ZM9.76 12.68C6.02 12.68 3 15.49 3 18.95C3 19.53 3.5 20 4.12 20L18.87 20C19.49 20 20 19.53 20 18.95C20 15.49 16.97 12.68 13.23 12.68L9.76 12.68Z" fill="#FFFFFF" fill-opacity="1.000000" fill-rule="nonzero"/>
	</g>
</svg>
