<svg width="28.000000" height="28.000000" viewBox="0 0 28 28" fill="none" xmlns="http://www.w3.org/2000/svg" xmlns:xlink="http://www.w3.org/1999/xlink">
	<desc>
			Created with Pixso.
	</desc>
	<defs>
		<clipPath id="clip18_2088">
			<rect id="Component 4" rx="0.000000" width="27.000000" height="27.000000" transform="translate(0.500000 0.500000)" fill="white" fill-opacity="0"/>
		</clipPath>
	</defs>
	<rect id="Component 4" rx="0.000000" width="27.000000" height="27.000000" transform="translate(0.500000 0.500000)" fill="#FFFFFF" fill-opacity="0"/>
	<g clip-path="url(#clip18_2088)">
		<path id="Vector" d="M15.53 5.53C15.53 4.68 14.85 4 14 4C13.14 4 12.46 4.68 12.46 5.53L12.46 12.46L5.53 12.46C4.68 12.46 4 13.14 4 14C4 14.85 4.68 15.53 5.53 15.53L12.46 15.53L12.46 22.46C12.46 23.31 13.14 24 14 24C14.85 24 15.53 23.31 15.53 22.46L15.53 15.53L22.46 15.53C23.31 15.53 24 14.85 24 14C24 13.14 23.31 12.46 22.46 12.46L15.53 12.46L15.53 5.53Z" fill="#F0F4FF" fill-opacity="0.400000" fill-rule="nonzero"/>
	</g>
</svg>
