<svg width="28.000000" height="28.000000" viewBox="0 0 28 28" fill="none" xmlns="http://www.w3.org/2000/svg" xmlns:xlink="http://www.w3.org/1999/xlink">
	<desc>
			Created with Pixso.
	</desc>
	<defs>
		<clipPath id="clip9_10083">
			<rect id="Component 4" rx="0.000000" width="27.000000" height="27.000000" transform="translate(0.500000 0.500000)" fill="white" fill-opacity="0"/>
		</clipPath>
	</defs>
	<g clip-path="url(#clip9_10083)">
		<path id="↳ Icon Color" d="M15.4 10.91L15.4 10.91L15.4 10.91L15.4 10.91C15.04 10.55 14.74 10.25 14.51 9.97C14.26 9.69 14.04 9.37 13.92 8.99C13.73 8.41 13.73 7.79 13.92 7.22C14.04 6.83 14.26 6.52 14.51 6.23C14.74 5.96 15.07 5.63 15.43 5.27L15.43 5.27L15.43 5.27L15.74 4.96L16.06 4.64L16.06 4.64C16.41 4.29 16.74 3.95 17.02 3.72C17.31 3.48 17.62 3.26 18 3.14C18.58 2.95 19.2 2.95 19.77 3.14C20.16 3.26 20.47 3.48 20.76 3.72C21.03 3.95 21.34 4.26 21.69 4.62L21.69 4.62L21.69 4.62L21.69 4.62L21.69 4.62L22.03 4.96L22.37 5.3L22.37 5.3L22.37 5.3L22.37 5.3L22.37 5.3C22.73 5.65 23.04 5.96 23.27 6.23C23.51 6.52 23.73 6.83 23.85 7.22C24.04 7.79 24.04 8.41 23.85 8.99C23.73 9.37 23.51 9.69 23.27 9.97C23.04 10.25 22.7 10.58 22.35 10.93L22.03 11.25L21.72 11.56C21.36 11.92 21.03 12.25 20.76 12.48C20.47 12.73 20.16 12.95 19.77 13.07C19.2 13.26 18.58 13.26 18 13.07C17.62 12.95 17.31 12.73 17.02 12.48C16.74 12.25 16.44 11.95 16.08 11.59L16.08 11.59L16.08 11.59L15.74 11.25L15.4 10.91L15.4 10.91ZM21 9.59L20.68 9.9L20.37 10.22C19.98 10.6 19.73 10.85 19.52 11.03C19.33 11.2 19.23 11.24 19.18 11.26C18.99 11.32 18.78 11.32 18.59 11.26C18.54 11.24 18.45 11.2 18.25 11.03C18.04 10.85 17.79 10.6 17.4 10.22L17.09 9.9L16.77 9.59C16.39 9.2 16.14 8.95 15.96 8.74C15.79 8.54 15.75 8.45 15.73 8.4C15.67 8.21 15.67 8 15.73 7.81C15.75 7.76 15.79 7.66 15.96 7.47C16.14 7.26 16.39 7.01 16.77 6.62L17.09 6.31L17.4 5.99C17.79 5.6 18.04 5.35 18.25 5.18C18.45 5.01 18.54 4.97 18.59 4.95C18.78 4.89 18.99 4.89 19.18 4.95C19.23 4.97 19.33 5.01 19.52 5.18C19.73 5.35 19.98 5.6 20.37 5.99L20.68 6.31L21 6.62C21.39 7.01 21.64 7.26 21.81 7.47C21.98 7.66 22.02 7.76 22.04 7.81C22.1 8 22.1 8.21 22.04 8.4C22.02 8.45 21.98 8.54 21.81 8.74C21.64 8.95 21.39 9.2 21 9.59ZM14.44 19.06L14.44 19.06C14.44 18.56 14.44 18.13 14.47 17.77C14.5 17.39 14.57 17.02 14.75 16.66C15.02 16.12 15.46 15.68 16 15.41C16.36 15.22 16.74 15.16 17.11 15.12C17.47 15.1 17.94 15.1 18.44 15.1L18.44 15.1L18.89 15.1L19.33 15.1L19.33 15.1C19.83 15.1 20.31 15.1 20.66 15.12C21.04 15.16 21.41 15.22 21.77 15.41C22.31 15.68 22.75 16.12 23.02 16.66C23.21 17.02 23.28 17.39 23.31 17.77C23.34 18.13 23.34 18.56 23.34 19.06L23.34 19.06L23.34 19.06L23.34 19.55L23.34 20.03L23.34 20.03L23.34 20.03C23.34 20.53 23.34 20.96 23.31 21.32C23.28 21.7 23.21 22.07 23.02 22.43C22.75 22.97 22.31 23.41 21.77 23.68C21.41 23.87 21.04 23.94 20.66 23.97C20.31 24 19.83 24 19.33 24L19.33 24L19.33 24L19.33 24L18.89 24L18.44 24L18.44 24L18.44 24L18.44 24C17.94 24 17.47 24 17.11 23.97C16.74 23.94 16.36 23.87 16 23.68C15.46 23.41 15.02 22.97 14.75 22.43C14.57 22.07 14.5 21.7 14.47 21.32C14.44 20.96 14.44 20.53 14.44 20.03L14.44 20.03L14.44 20.03L14.44 19.55L14.44 19.06L14.44 19.06ZM19.33 22.09L18.89 22.09L18.44 22.09C17.89 22.09 17.54 22.09 17.27 22.07C17.01 22.04 16.91 22.01 16.86 21.98C16.69 21.89 16.54 21.75 16.45 21.57C16.42 21.52 16.39 21.42 16.37 21.17C16.34 20.89 16.34 20.54 16.34 19.99L16.34 19.55L16.34 19.1C16.34 18.55 16.34 18.2 16.37 17.93C16.39 17.67 16.42 17.57 16.45 17.52C16.54 17.34 16.69 17.2 16.86 17.11C16.91 17.08 17.01 17.05 17.27 17.03C17.54 17 17.89 17 18.44 17L18.89 17L19.33 17C19.88 17 20.24 17 20.51 17.03C20.77 17.05 20.86 17.08 20.91 17.11C21.09 17.2 21.24 17.34 21.33 17.52C21.35 17.57 21.39 17.67 21.41 17.93C21.43 18.2 21.43 18.55 21.43 19.1L21.43 19.55L21.43 19.99C21.43 20.54 21.43 20.89 21.41 21.17C21.39 21.42 21.35 21.52 21.33 21.57C21.24 21.75 21.09 21.89 20.91 21.98C20.86 22.01 20.77 22.04 20.51 22.07C20.24 22.09 19.88 22.09 19.33 22.09ZM3 7.62L3 7.62L3 7.62L3 8.1L3 8.58L3 8.58L3 8.58L3 8.58C3 9.09 3 9.52 3.02 9.88C3.06 10.26 3.12 10.63 3.31 10.99C3.58 11.53 4.02 11.97 4.56 12.24C4.92 12.42 5.29 12.49 5.67 12.52C6.03 12.55 6.5 12.55 7 12.55L7.44 12.55L7.89 12.55C8.39 12.55 8.86 12.55 9.22 12.52C9.6 12.49 9.97 12.42 10.33 12.24C10.87 11.97 11.31 11.53 11.58 10.99C11.77 10.63 11.83 10.26 11.87 9.88C11.9 9.52 11.9 9.09 11.9 8.58L11.9 8.58L11.9 8.1L11.9 7.62L11.9 7.62C11.9 7.12 11.9 6.69 11.87 6.33C11.83 5.95 11.77 5.58 11.58 5.22C11.31 4.68 10.87 4.24 10.33 3.97C9.97 3.78 9.6 3.71 9.22 3.68C8.86 3.65 8.39 3.65 7.89 3.65L7.89 3.65L7.89 3.65L7.44 3.65L7 3.65L7 3.65L7 3.65C6.5 3.65 6.03 3.65 5.67 3.68C5.29 3.71 4.92 3.78 4.56 3.97C4.02 4.24 3.58 4.68 3.31 5.22C3.12 5.58 3.06 5.95 3.02 6.33C3 6.69 3 7.12 3 7.62L3 7.62ZM7.44 10.65L7.89 10.65C8.44 10.65 8.79 10.65 9.07 10.62C9.32 10.6 9.42 10.57 9.47 10.54C9.65 10.45 9.79 10.3 9.88 10.13C9.91 10.08 9.94 9.98 9.96 9.72C9.99 9.45 9.99 9.1 9.99 8.55L9.99 8.1L9.99 7.66C9.99 7.11 9.99 6.75 9.96 6.48C9.94 6.22 9.91 6.13 9.88 6.08C9.79 5.9 9.65 5.76 9.47 5.66C9.42 5.64 9.32 5.6 9.07 5.58C8.79 5.56 8.44 5.56 7.89 5.56L7.44 5.56L7 5.56C6.45 5.56 6.09 5.56 5.83 5.58C5.57 5.6 5.47 5.64 5.42 5.66C5.24 5.76 5.1 5.9 5.01 6.08C4.98 6.13 4.95 6.22 4.92 6.48C4.9 6.75 4.9 7.11 4.9 7.66L4.9 8.1L4.9 8.55C4.9 9.1 4.9 9.45 4.92 9.72C4.95 9.98 4.98 10.08 5.01 10.13C5.1 10.3 5.24 10.45 5.42 10.54C5.47 10.57 5.57 10.6 5.83 10.62C6.09 10.65 6.45 10.65 7 10.65L7.44 10.65ZM3 19.06L3 19.06L3 19.06C3 18.56 3 18.13 3.02 17.77C3.06 17.39 3.12 17.02 3.31 16.66C3.58 16.12 4.02 15.68 4.56 15.41C4.92 15.22 5.29 15.16 5.67 15.12C6.03 15.1 6.5 15.1 7 15.1L7 15.1L7.44 15.1L7.89 15.1L7.89 15.1C8.39 15.1 8.86 15.1 9.22 15.12C9.6 15.16 9.97 15.22 10.33 15.41C10.87 15.68 11.31 16.12 11.58 16.66C11.77 17.02 11.83 17.39 11.87 17.77C11.9 18.13 11.9 18.56 11.9 19.06L11.9 19.06L11.9 19.55L11.9 20.03L11.9 20.03C11.9 20.53 11.9 20.96 11.87 21.32C11.83 21.7 11.77 22.07 11.58 22.43C11.31 22.97 10.87 23.41 10.33 23.68C9.97 23.87 9.6 23.94 9.22 23.97C8.86 24 8.39 24 7.89 24L7.89 24L7.44 24L7 24L7 24C6.5 24 6.03 24 5.67 23.97C5.29 23.94 4.92 23.87 4.56 23.68C4.02 23.41 3.58 22.97 3.31 22.43C3.12 22.07 3.06 21.7 3.02 21.32C3 20.96 3 20.53 3 20.03L3 20.03L3 20.03L3 20.03L3 19.55L3 19.06L3 19.06ZM7.89 22.09L7.44 22.09L7 22.09C6.45 22.09 6.09 22.09 5.83 22.07C5.57 22.04 5.47 22.01 5.42 21.98C5.24 21.89 5.1 21.75 5.01 21.57C4.98 21.52 4.95 21.42 4.92 21.17C4.9 20.89 4.9 20.54 4.9 19.99L4.9 19.55L4.9 19.1C4.9 18.55 4.9 18.2 4.92 17.93C4.95 17.67 4.98 17.57 5.01 17.52C5.1 17.34 5.24 17.2 5.42 17.11C5.47 17.08 5.57 17.05 5.83 17.03C6.09 17 6.45 17 7 17L7.44 17L7.89 17C8.44 17 8.79 17 9.07 17.03C9.32 17.05 9.42 17.08 9.47 17.11C9.65 17.2 9.79 17.34 9.88 17.52C9.91 17.57 9.94 17.67 9.96 17.93C9.99 18.2 9.99 18.55 9.99 19.1L9.99 19.55L9.99 19.99C9.99 20.54 9.99 20.89 9.96 21.17C9.94 21.42 9.91 21.52 9.88 21.57C9.79 21.75 9.65 21.89 9.47 21.98C9.42 22.01 9.32 22.04 9.07 22.07C8.79 22.09 8.44 22.09 7.89 22.09Z" fill="#F0F4FF" fill-opacity="0.400000" fill-rule="evenodd"/>
	</g>
</svg>
