<svg width="28.000000" height="28.000000" viewBox="0 0 28 28" fill="none" xmlns="http://www.w3.org/2000/svg" xmlns:xlink="http://www.w3.org/1999/xlink">
	<desc>
			Created with Pixso.
	</desc>
	<defs>
		<clipPath id="clip79_7858">
			<rect id="Component 4" rx="0.000000" width="27.000000" height="27.000000" transform="translate(0.500000 0.500000)" fill="white" fill-opacity="0"/>
		</clipPath>
	</defs>
	<rect id="Component 4" rx="0.000000" width="27.000000" height="27.000000" transform="translate(0.500000 0.500000)" fill="#FFFFFF" fill-opacity="0"/>
	<g clip-path="url(#clip79_7858)">
		<path id="Vector" d="M14 26C17.18 26 20.23 24.73 22.48 22.48C24.73 20.23 26 17.18 26 14C26 10.81 24.73 7.76 22.48 5.51C20.23 3.26 17.18 2 14 2C10.81 2 7.76 3.26 5.51 5.51C3.26 7.76 2 10.81 2 14C2 17.18 3.26 20.23 5.51 22.48C7.76 24.73 10.81 26 14 26ZM9.96 9.74C10.32 8.7 11.32 8 12.43 8L15.16 8C16.8 8 18.12 9.32 18.12 10.95C18.12 12.01 17.55 12.99 16.64 13.52L15.12 14.39C15.11 15 14.61 15.5 14 15.5C13.37 15.5 12.87 14.99 12.87 14.37L12.87 13.74C12.87 13.33 13.08 12.96 13.44 12.76L15.51 11.57C15.73 11.45 15.87 11.21 15.87 10.96C15.87 10.56 15.55 10.25 15.16 10.25L12.43 10.25C12.27 10.25 12.13 10.35 12.08 10.5L12.06 10.55C11.85 11.14 11.21 11.45 10.62 11.24C10.04 11.03 9.73 10.39 9.94 9.8L9.96 9.75L9.96 9.74ZM12.5 18.5C12.5 18.1 12.65 17.72 12.93 17.43C13.21 17.15 13.6 17 14 17C14.39 17 14.78 17.15 15.06 17.43C15.34 17.72 15.5 18.1 15.5 18.5C15.5 18.89 15.34 19.27 15.06 19.56C14.78 19.84 14.39 20 14 20C13.6 20 13.21 19.84 12.93 19.56C12.65 19.27 12.5 18.89 12.5 18.5Z" fill="#F0F4FF" fill-opacity="0.400000" fill-rule="nonzero"/>
	</g>
</svg>
