<svg width="24.000000" height="24.000000" viewBox="0 0 24 24" fill="none" xmlns="http://www.w3.org/2000/svg" xmlns:xlink="http://www.w3.org/1999/xlink">
	<desc>
			Created with Pixso.
	</desc>
	<defs>
		<clipPath id="clip42_6604">
			<rect id="Component 4" rx="0.000000" width="23.000000" height="23.000000" transform="translate(0.500000 0.500000)" fill="white" fill-opacity="0"/>
		</clipPath>
	</defs>
	<rect id="Component 4" rx="0.000000" width="23.000000" height="23.000000" transform="translate(0.500000 0.500000)" fill="#FFFFFF" fill-opacity="0"/>
	<g clip-path="url(#clip42_6604)">
		<path id="Vector" d="M5.94 5.93L4.8 4.8C4.29 4.29 3.42 4.65 3.42 5.36L3.42 9.05C3.42 9.49 3.78 9.85 4.23 9.85L7.91 9.85C8.63 9.85 8.99 8.98 8.48 8.48L7.45 7.45C8.62 6.29 10.22 5.57 12 5.57C15.55 5.57 18.42 8.45 18.42 12C18.42 15.54 15.55 18.42 12 18.42C10.63 18.42 9.37 18 8.32 17.27C7.84 16.93 7.17 17.05 6.83 17.54C6.49 18.02 6.61 18.69 7.09 19.03C8.49 20 10.18 20.57 12 20.57C16.73 20.57 20.57 16.73 20.57 12C20.57 7.26 16.73 3.42 12 3.42C9.63 3.42 7.49 4.38 5.94 5.93ZM12 7.71C11.55 7.71 11.19 8.07 11.19 8.51L11.19 12C11.19 12.21 11.28 12.41 11.43 12.56L13.84 14.97C14.15 15.29 14.66 15.29 14.97 14.97C15.28 14.66 15.29 14.15 14.97 13.84L12.8 11.66L12.8 8.51C12.8 8.07 12.44 7.71 11.99 7.71L12 7.71Z" fill="#FFFFFF" fill-opacity="1.000000" fill-rule="nonzero"/>
	</g>
</svg>
