<svg width="28.000000" height="28.000000" viewBox="0 0 28 28" fill="none" xmlns="http://www.w3.org/2000/svg" xmlns:xlink="http://www.w3.org/1999/xlink">
	<desc>
			Created with Pixso.
	</desc>
	<defs>
		<clipPath id="clip9_10038">
			<rect id="Component 4" rx="0.000000" width="27.000000" height="27.000000" transform="translate(0.500000 0.500000)" fill="white" fill-opacity="0"/>
		</clipPath>
	</defs>
	<g clip-path="url(#clip9_10038)">
		<path id="↳ Icon Color" d="M12.53 5.2C8.48 5.2 5.19 8.48 5.19 12.53C5.19 16.58 8.48 19.86 12.53 19.86C16.58 19.86 19.86 16.58 19.86 12.53C19.86 8.48 16.58 5.2 12.53 5.2ZM3 12.53C3 7.26 7.26 3 12.53 3C17.79 3 22.06 7.26 22.06 12.53C22.06 14.76 21.29 16.82 20 18.45L24.67 23.12C25.1 23.55 25.1 24.24 24.67 24.67C24.24 25.1 23.55 25.1 23.12 24.67L18.45 20C16.82 21.29 14.76 22.06 12.53 22.06C7.26 22.06 3 17.79 3 12.53Z" fill="#F0F4FF" fill-opacity="0.400000" fill-rule="evenodd"/>
	</g>
</svg>
