<svg width="28.000000" height="28.000000" viewBox="0 0 28 28" fill="none" xmlns="http://www.w3.org/2000/svg" xmlns:xlink="http://www.w3.org/1999/xlink">
	<desc>
			Created with Pixso.
	</desc>
	<defs/>
	<path id="↳ Icon Color" d="M20 18.84C19.24 18.84 18.56 19.15 18.03 19.65L10.91 15.28C10.96 15.03 11 14.79 11 14.54C11 14.28 10.96 14.04 10.91 13.8L17.96 9.47C18.5 9.99 19.21 10.32 20 10.32C21.66 10.32 23 8.91 23 7.16C23 5.41 21.66 4 20 4C18.33 4 17 5.41 17 7.16C17 7.41 17.03 7.65 17.08 7.9L10.03 12.23C9.5 11.7 8.78 11.37 8 11.37C6.33 11.37 5 12.79 5 14.54C5 16.29 6.33 17.7 8 17.7C8.78 17.7 9.5 17.37 10.03 16.85L17.16 21.23C17.1 21.45 17.08 21.68 17.08 21.92C17.08 23.61 18.39 25 20 25C21.6 25 22.91 23.61 22.91 21.92C22.91 20.22 21.6 18.84 20 18.84Z" fill="#FFFFFF" fill-opacity="1.000000" fill-rule="nonzero"/>
</svg>
