<svg width="28.000000" height="28.000000" viewBox="0 0 28 28" fill="none" xmlns="http://www.w3.org/2000/svg" xmlns:xlink="http://www.w3.org/1999/xlink">
	<desc>
			Created with Pixso.
	</desc>
	<defs>
		<clipPath id="clip27_6988">
			<rect id="Property 1=shield-solid 1" rx="0.000000" width="27.000000" height="27.000000" transform="translate(0.500000 0.500000)" fill="white" fill-opacity="0"/>
		</clipPath>
	</defs>
	<rect id="Property 1=shield-solid 1" rx="0.000000" width="27.000000" height="27.000000" transform="translate(0.500000 0.500000)" fill="#FFFFFF" fill-opacity="0"/>
	<g clip-path="url(#clip27_6988)">
		<path id="Vector" d="M14.5 3C14.7 3 14.9 3.04 15.08 3.13L23.32 6.73C24.28 7.16 25 8.14 25 9.32C24.97 13.8 23.19 22 15.65 25.72C14.92 26.09 14.07 26.09 13.34 25.72C5.8 22 4.02 13.8 4 9.32C3.99 8.14 4.71 7.16 5.67 6.73L13.91 3.13C14.09 3.04 14.29 3 14.5 3Z" fill="#FFFFFF" fill-opacity="1.000000" fill-rule="nonzero"/>
	</g>
</svg>
