<svg width="28.000000" height="28.000000" viewBox="0 0 28 28" fill="none" xmlns="http://www.w3.org/2000/svg" xmlns:xlink="http://www.w3.org/1999/xlink">
	<desc>
			Created with Pixso.
	</desc>
	<defs>
		<clipPath id="clip17_6993">
			<rect id="slot-machine 1" rx="0.000000" width="23.000000" height="23.000000" transform="translate(2.500000 2.500000)" fill="white" fill-opacity="0"/>
		</clipPath>
		<clipPath id="clip17_6992">
			<rect id="Property 1=slots_icon" rx="0.000000" width="27.000000" height="27.000000" transform="translate(0.500000 0.500000)" fill="white" fill-opacity="0"/>
		</clipPath>
	</defs>
	<g clip-path="url(#clip17_6992)">
		<rect id="slot-machine 1" rx="0.000000" width="23.000000" height="23.000000" transform="translate(2.500000 2.500000)" fill="#FFFFFF" fill-opacity="0"/>
		<g clip-path="url(#clip17_6993)">
			<path id="Vector" d="M24.75 11.07C24.36 11.07 24.05 11.39 24.05 11.78L24.05 16.31L22.64 16.31L22.64 13.48C22.64 13.09 22.33 12.78 21.94 12.78L17.01 12.78L17.01 21.26L21.94 21.26C22.33 21.26 22.64 20.95 22.64 20.56L22.64 17.72L24.75 17.72C25.14 17.72 25.46 17.41 25.46 17.02L25.46 11.78C25.46 11.39 25.14 11.07 24.75 11.07ZM21.41 15.59L19.91 19.01C19.79 19.27 19.54 19.43 19.27 19.43C19.17 19.43 19.08 19.41 18.98 19.37C18.63 19.21 18.47 18.8 18.62 18.44L19.69 16.01L18.89 16.01C18.5 16.01 18.18 15.7 18.18 15.31C18.18 14.92 18.5 14.61 18.89 14.61L20.77 14.61C21.01 14.61 21.23 14.73 21.36 14.92C21.49 15.12 21.51 15.37 21.41 15.59Z" fill="#FFFFFF" fill-opacity="1.000000" fill-rule="nonzero"/>
			<path id="Vector" d="M12.84 6.95L12.59 6.63L12.37 6.92C12.29 7.03 12.18 7.11 12.06 7.15L11.69 7.29L11.89 7.59C11.97 7.7 12.01 7.82 12.01 7.96L12.03 8.35L12.37 8.25C12.44 8.23 12.5 8.22 12.57 8.22C12.64 8.22 12.7 8.23 12.76 8.25L13.15 8.36L13.16 8C13.16 7.86 13.2 7.73 13.27 7.62L13.5 7.3L13.15 7.17C13.03 7.13 12.92 7.05 12.84 6.95Z" fill="#FFFFFF" fill-opacity="1.000000" fill-rule="nonzero"/>
			<path id="Vector" d="M21.33 8.46C21.33 8.08 21.02 7.76 20.63 7.76L19.6 7.76C19.31 6.26 18.53 4.89 17.38 3.85C16.06 2.65 14.36 2 12.59 2C10.82 2 9.12 2.65 7.8 3.85C6.65 4.89 5.87 6.26 5.58 7.76L4.55 7.76C4.16 7.76 3.85 8.08 3.85 8.46L3.85 11.37L21.33 11.37L21.33 8.46ZM15.16 7.33L14.55 8.24L14.52 9.3C14.52 9.52 14.41 9.72 14.24 9.85C14.06 9.98 13.84 10.02 13.63 9.96L12.58 9.66L11.56 9.96C11.49 9.97 11.42 9.98 11.36 9.98C11.21 9.98 11.07 9.94 10.95 9.85C10.77 9.72 10.66 9.52 10.66 9.31L10.61 8.21L10.02 7.33C9.89 7.16 9.86 6.93 9.93 6.72C9.99 6.52 10.15 6.35 10.35 6.28L11.38 5.9L12.03 5.06C12.16 4.89 12.37 4.79 12.59 4.79L12.59 4.79C12.81 4.79 13.01 4.89 13.14 5.06L13.82 5.92L14.82 6.28C15.02 6.35 15.18 6.51 15.25 6.72C15.32 6.92 15.29 7.15 15.16 7.33Z" fill="#FFFFFF" fill-opacity="1.000000" fill-rule="nonzero"/>
			<path id="Vector" d="M14.19 22.67L10.99 22.67C10.07 22.67 9.33 23.41 9.33 24.32C9.33 25.24 10.07 25.98 10.99 25.98L14.19 25.98C15.1 25.98 15.85 25.24 15.85 24.32C15.85 23.41 15.1 22.67 14.19 22.67Z" fill="#FFFFFF" fill-opacity="1.000000" fill-rule="nonzero"/>
			<path id="Vector" d="M17.25 24.32C17.25 24.94 17.07 25.51 16.75 26L20.63 26C21.01 26 21.33 25.68 21.33 25.29L21.33 22.67L16.76 22.67C17.07 23.14 17.25 23.71 17.25 24.32Z" fill="#FFFFFF" fill-opacity="1.000000" fill-rule="nonzero"/>
			<path id="Vector" d="M8.41 22.67L3.85 22.67L3.85 25.29C3.85 25.68 4.16 26 4.55 26L8.42 26C8.11 25.51 7.92 24.94 7.92 24.32C7.92 23.71 8.1 23.14 8.41 22.67Z" fill="#FFFFFF" fill-opacity="1.000000" fill-rule="nonzero"/>
			<path id="Vector" d="M8.16 12.78L3.24 12.78C2.85 12.78 2.53 13.09 2.53 13.48L2.53 20.56C2.53 20.95 2.85 21.26 3.24 21.26L8.16 21.26L8.16 12.78L8.16 12.78ZM6.93 15.59L5.43 19.01C5.31 19.27 5.06 19.43 4.79 19.43C4.69 19.43 4.59 19.41 4.5 19.37C4.15 19.21 3.99 18.8 4.14 18.44L5.21 16.01L4.41 16.01C4.02 16.01 3.71 15.7 3.71 15.31C3.71 14.92 4.02 14.61 4.41 14.61L6.29 14.61C6.53 14.61 6.75 14.73 6.88 14.92C7.01 15.12 7.03 15.37 6.93 15.59Z" fill="#FFFFFF" fill-opacity="1.000000" fill-rule="nonzero"/>
			<path id="Vector" d="M15.61 21.26L15.61 12.78L9.57 12.78L9.57 21.26L15.61 21.26ZM11.65 14.61L13.53 14.61C13.77 14.61 13.99 14.73 14.12 14.92C14.25 15.12 14.27 15.37 14.17 15.59L12.67 19.01C12.56 19.27 12.3 19.43 12.03 19.43C11.93 19.43 11.84 19.41 11.74 19.37C11.39 19.21 11.23 18.8 11.38 18.44L12.45 16.01L11.65 16.01C11.26 16.01 10.95 15.7 10.95 15.31C10.95 14.92 11.26 14.61 11.65 14.61Z" fill="#FFFFFF" fill-opacity="1.000000" fill-rule="nonzero"/>
		</g>
	</g>
</svg>
