<svg width="28.000000" height="28.000000" viewBox="0 0 28 28" fill="none" xmlns="http://www.w3.org/2000/svg" xmlns:xlink="http://www.w3.org/1999/xlink">
	<defs>
		<clipPath id="clip5_7030">
			<rect id="Property 1=Telegram" rx="0.000000" width="27.000000" height="27.000000" transform="translate(0.500000 0.500000)" fill="white" fill-opacity="0"/>
		</clipPath>
	</defs>
	<g clip-path="url(#clip5_7030)">
		<rect id="Logo Container" width="31.769232" height="32.000000" fill="#34AADF" fill-opacity="0"/>
		<path id="Vector" d="M4.28 12.27C4.28 12.27 13.57 8.1 16.79 6.63C18.03 6.04 22.21 4.16 22.21 4.16C22.21 4.16 24.15 3.34 23.99 5.34C23.93 6.16 23.5 9.04 23.07 12.15C22.43 16.56 21.73 21.38 21.73 21.38C21.73 21.38 21.62 22.73 20.71 22.96C19.8 23.2 18.29 22.14 18.03 21.9C17.81 21.73 14 19.08 12.6 17.79C12.23 17.44 11.8 16.73 12.66 15.91C14.59 13.97 16.9 11.56 18.29 10.04C18.94 9.33 19.58 7.69 16.9 9.68C13.09 12.56 9.33 15.27 9.33 15.27C9.33 15.27 8.47 15.85 6.86 15.32C5.25 14.8 3.37 14.09 3.37 14.09C3.37 14.09 2.08 13.21 4.28 12.27Z" fill="#FFFFFF" fill-opacity="1.000000" fill-rule="nonzero"/>
	</g>
</svg>
