<svg width="28.000000" height="28.000000" viewBox="0 0 28 28" fill="none" xmlns="http://www.w3.org/2000/svg" xmlns:xlink="http://www.w3.org/1999/xlink">
	<desc>
			Created with Pixso.
	</desc>
	<defs>
		<clipPath id="clip5_7025">
			<rect id="Property 1=Vkontakte" rx="0.000000" width="27.000000" height="27.000000" transform="translate(0.500000 0.500000)" fill="white" fill-opacity="0"/>
		</clipPath>
	</defs>
	<g clip-path="url(#clip5_7025)">
		<rect id="Logo Container" width="31.769232" height="32.000000" fill="#2787F5" fill-opacity="0"/>
		<path id="path4" d="M26.4 9.88C26.58 9.37 26.4 9 25.54 9L22.69 9C21.97 9 21.64 9.32 21.46 9.67C21.46 9.67 20.01 12.64 17.96 14.57C17.3 15.13 17 15.3 16.63 15.3C16.45 15.3 16.19 15.13 16.19 14.62L16.19 9.88C16.19 9.27 15.98 9 15.38 9L10.91 9C10.46 9 10.19 9.28 10.19 9.55C10.19 10.12 11.21 10.26 11.32 11.88L11.32 15.41C11.32 16.18 11.15 16.32 10.79 16.32C9.82 16.32 7.48 13.34 6.09 9.93C5.82 9.26 5.54 9 4.81 9L1.97 9C1.16 9 1 9.32 1 9.67C1 10.31 1.96 13.45 5.49 17.61C7.84 20.45 11.15 22 14.16 22C15.97 22 16.19 21.65 16.19 21.06L16.19 18.92C16.19 18.23 16.36 18.1 16.94 18.1C17.36 18.1 18.08 18.27 19.77 19.64C21.7 21.27 22.02 22 23.1 22L25.94 22C26.76 22 27.16 21.65 26.93 20.98C26.67 20.3 25.75 19.33 24.53 18.17C23.87 17.51 22.87 16.8 22.57 16.45C22.15 15.99 22.27 15.79 22.57 15.38C22.57 15.38 26.04 11.27 26.4 9.88Z" fill="#FFFFFF" fill-opacity="1.000000" fill-rule="evenodd"/>
	</g>
</svg>
