<svg width="28.000000" height="28.000000" viewBox="0 0 28 28" fill="none" xmlns="http://www.w3.org/2000/svg" xmlns:xlink="http://www.w3.org/1999/xlink">
	<desc>
			Created with Pixso.
	</desc>
	<defs>
		<clipPath id="clip86_4974">
			<rect id="Property 1=wallet-solid (3) 1" rx="0.000000" width="27.000000" height="27.000000" transform="translate(0.500000 0.500000)" fill="white" fill-opacity="0"/>
		</clipPath>
	</defs>
	<rect id="Property 1=wallet-solid (3) 1" rx="0.000000" width="27.000000" height="27.000000" transform="translate(0.500000 0.500000)" fill="#FFFFFF" fill-opacity="0"/>
	<g clip-path="url(#clip86_4974)">
		<path id="Vector" d="M5 3C3.34 3 2 4.34 2 6L2 21C2 22.65 3.34 24 5 24L23 24C24.65 24 26 22.65 26 21L26 10.5C26 8.84 24.65 7.5 23 7.5L5.75 7.5C5.33 7.5 5 7.16 5 6.75C5 6.33 5.33 6 5.75 6L23 6C23.82 6 24.5 5.32 24.5 4.5C24.5 3.67 23.82 3 23 3L5 3ZM21.5 14.25C21.89 14.25 22.28 14.4 22.56 14.68C22.84 14.97 23 15.35 23 15.75C23 16.14 22.84 16.52 22.56 16.81C22.28 17.09 21.89 17.25 21.5 17.25C21.1 17.25 20.71 17.09 20.43 16.81C20.15 16.52 20 16.14 20 15.75C20 15.35 20.15 14.97 20.43 14.68C20.71 14.4 21.1 14.25 21.5 14.25Z" fill="#FFFFFF" fill-opacity="1.000000" fill-rule="nonzero"/>
	</g>
</svg>
